<svg width="107" height="100" viewBox="0 0 107 100" fill="none" xmlns="http://www.w3.org/2000/svg">
<path d="M101.755 41.5489C101.737 41.5057 101.706 41.4697 101.662 41.446C99.4255 40.1866 97.0539 39.5479 94.6128 39.5479C91.4034 39.5479 88.1737 40.6748 85.017 42.8968C84.7599 43.0761 84.4609 43.1712 84.1497 43.1712C83.6586 43.1712 83.1992 42.9335 82.9176 42.5354C82.4395 41.8592 82.6005 40.921 83.2808 40.4428C87.063 37.7809 90.5542 36.4869 93.9521 36.4869C95.6125 36.4869 97.3002 36.7958 99.1167 37.4337C99.2026 37.464 99.2987 37.4359 99.355 37.3646C99.4142 37.2926 100.773 35.5285 100.04 31.2348C99.7161 29.6925 99.1217 28.4332 98.2811 27.5036C96.5861 25.3592 94.8672 24.9093 93.7233 24.9093C93.0134 24.9093 92.5635 25.0857 92.544 25.0929C92.5028 25.1095 92.4674 25.1383 92.4436 25.1779C90.7992 27.7556 88.8911 29.4866 85.4051 31.5668C85.1704 31.7065 84.9039 31.7792 84.633 31.7792C84.1051 31.7792 83.6111 31.4991 83.3396 31.0484C82.9128 30.3384 83.146 29.4146 83.8581 28.989C88.0657 26.4782 89.7391 24.8279 90.7515 22.1774C91.2628 20.3068 90.6323 17.7844 89.2898 16.3184L89.0204 15.9893C87.4929 14.1158 84.6555 10.6278 77.4803 8.79538C76.4844 8.47929 75.4675 8.31943 74.4571 8.31943C71.5337 8.31943 69.6263 9.63136 69.5463 9.68753C69.4675 9.74225 69.4358 9.84234 69.4654 9.93234C69.7499 10.7662 70.618 13.3036 69.7347 16.1442C69.539 16.7771 68.9591 17.2012 68.2968 17.2012C68.1459 17.2012 67.9957 17.1796 67.8498 17.1342C67.0575 16.8887 66.6127 16.0462 66.8589 15.2557C67.4439 13.3742 67.319 11.7115 66.4769 10.1772C65.3763 8.1683 63.8502 6.81604 61.8208 6.0448C59.8838 5.22323 56.8138 5.04033 55.576 5C47.5986 5.0432 41.9112 5.55515 34.7137 8.12277C33.7922 8.42231 33.0736 9.02427 32.6894 9.81561C32.2359 10.7531 32.246 11.9218 32.7212 13.194C32.7277 13.2099 32.7443 13.261 32.7732 13.3438C33.33 14.9682 33.8746 16.4264 34.3924 17.6786C34.5455 18.0494 34.5455 18.457 34.3917 18.8278C34.2371 19.1972 33.9475 19.4866 33.5756 19.6393C33.3914 19.7149 33.1986 19.753 33.0021 19.753C32.394 19.753 31.848 19.388 31.6083 18.8227C31.1764 17.7959 29.8316 14.4354 29.8194 14.4045C29.7948 14.3382 29.1716 12.78 27.1639 12.78C25.6567 12.78 23.7855 13.6751 21.608 15.4385C18.7119 17.6757 17.2336 19.7019 17.2127 21.4595C17.1983 22.6994 17.9407 23.3137 17.9927 23.3539C18.59 23.7341 21.8362 26.2009 23.1926 27.7065C23.7602 28.3351 23.7414 29.2705 23.1499 29.8343C22.8683 30.1028 22.4985 30.2505 22.1093 30.2505C21.694 30.2505 21.3076 30.0856 21.0209 29.7868C17.654 26.2802 14.8937 24.5737 12.5806 24.5737C12.2556 24.5737 11.9364 24.6089 11.6323 24.6781C10.7346 24.8833 9.27878 25.9144 8.40336 27.2731C5.31525 31.2744 4.30634 34.413 4.0218 39.7854C3.84992 43.0011 4.72089 46.1391 5.69803 47.5028C7.07166 49.419 8.46112 50.5032 8.9884 50.8835C8.9884 50.8835 9.41162 51.1521 9.57339 51.026C10.9485 49.9496 12.5228 49.3836 14.4562 49.3836C15.6124 49.3836 16.9203 49.578 18.343 49.9618C18.72 50.0641 19.0348 50.3096 19.2284 50.6545C19.427 51.0073 19.4761 51.4336 19.3613 51.8231C19.175 52.4589 18.5813 52.9032 17.9162 52.9032C17.7732 52.9032 17.6316 52.8816 17.4937 52.842C16.4999 52.5533 15.5718 52.4301 14.7378 52.4056C13.9159 52.384 12.4166 52.4611 11.7371 53.2265C11.7061 53.2618 11.6779 53.2963 11.6678 53.341C11.6584 53.3835 11.4981 57.0378 16.7153 58.9019C21.0969 60.4666 23.3748 60.5184 32.8969 60.5184C34.3008 60.5184 35.8456 60.504 37.7558 60.4716C38.2375 60.4579 38.9193 60.2218 39.354 59.7192C39.6855 59.3375 39.8271 58.858 39.7642 58.3576C39.7592 57.5511 39.8841 56.8152 40.1622 56.0412C41.3032 52.8536 43.6006 50.7727 47.6124 49.2893C47.7821 49.2267 47.9569 49.1943 48.136 49.1943C48.7621 49.1943 49.3291 49.5889 49.5472 50.175C49.6873 50.5509 49.6721 50.9584 49.5038 51.3228C49.3363 51.6878 49.0366 51.965 48.6603 52.1055C45.5924 53.2402 43.7032 54.8603 43.0423 56.9219C41.9294 60.4004 44.5054 64.2203 44.5365 64.2513C52.2034 71.7427 67.0997 71.9558 67.8485 69.8771C68.4789 68.334 68.913 65.8845 67.392 62.9748C65.0094 58.4183 56.928 58.1353 56.8457 58.1318C56.0166 58.1088 55.3587 57.4168 55.3825 56.5916C55.4042 55.7866 56.0816 55.1307 56.9244 55.1307C57.3296 55.1422 66.8547 55.454 70.0613 61.5873C71.8025 64.9161 71.5577 67.8791 71.0435 69.7836C70.92 70.2948 71.0132 70.8104 71.2919 71.1647C71.4703 71.3879 71.8025 71.6543 72.3926 71.6543C72.3926 71.6543 77.669 71.6881 81.9797 70.7945C82.5625 70.675 83.1186 71.1042 83.2096 71.6874C83.3006 72.2728 82.8976 72.8222 82.3119 72.9129C75.9846 73.9001 70.4374 74.3933 65.6219 74.3933C59.8031 74.3933 55.0518 73.6718 51.279 72.2274C51.3433 74.8794 52.2468 77.1915 53.8905 79.0837C53.9006 79.0995 53.91 79.1103 53.9194 79.1247C54.4668 79.7 55.288 80.513 56.0376 81.1942C56.611 81.7155 59.325 83.4394 60.0307 83.8648C61.3935 84.6576 67.5886 88.4587 68.1845 88.8403C70.9115 90.5922 71.7189 92.4938 71.8041 92.607C72.0951 92.9907 72.2454 94.1306 72.2454 94.1306C72.4916 95.1523 73.416 95.912 74.5181 95.9091C75.8051 95.9062 76.848 94.8621 76.8436 93.5782C76.8436 93.5782 76.8797 90.9673 75.8592 89.1787C75.6953 88.8475 73.5475 85.338 71.0674 83.4313C70.3149 82.8523 68.539 81.5577 68.539 81.5577L68.5289 81.5527C68.3266 81.4151 68.2638 81.1451 68.3931 80.9356C68.5245 80.7232 68.8055 80.6548 69.0214 80.7858C69.0214 80.7858 74.253 84.4494 77.5332 83.5379C82.3539 82.1993 88.663 79.0383 88.663 71.9257C88.663 70.8687 88.5576 69.8743 88.3568 68.9382C89.0256 68.5832 89.69 68.1814 90.3538 67.7199C91.1323 67.0985 91.3641 66.3288 91.4212 65.7916C91.5021 65.0233 91.2796 64.2104 90.8391 63.6732L87.6628 59.5949L87.6252 59.5546C86.9637 58.7164 86.0978 58.5407 85.4876 58.5407C84.9669 58.5407 84.5589 58.6653 84.3408 58.7481C83.2249 59.3098 82.0486 59.7699 80.8503 60.1162C80.0617 60.3423 79.2095 59.8642 78.9856 59.0901C78.8751 58.7049 78.9192 58.2995 79.1127 57.9482C79.3077 57.5975 79.6262 57.3433 80.0133 57.2331C82.7468 56.4454 87.678 54.2717 90.0159 48.5601C90.247 47.9927 90.7944 47.6262 91.4112 47.6262C91.6062 47.6262 91.7961 47.6637 91.9774 47.7378C92.7465 48.0496 93.1185 48.9281 92.8036 49.6949C92.0539 51.5274 91.027 53.1858 89.7328 54.6538C89.1428 55.6035 89.2194 56.5871 89.9748 57.67L92.0497 60.358C92.0779 60.3961 92.1162 60.4228 92.1602 60.4343C92.1942 60.4444 93.0052 60.6726 94.1629 60.6726C95.7221 60.6726 97.9284 60.2507 99.5802 58.2332C103.616 53.4217 103.813 49.2584 103.955 46.2184C103.97 45.916 103.983 45.6215 104 45.3082C103.821 43.0775 102.395 41.9471 101.757 41.5488L101.755 41.5489ZM39.9359 39.5544C37.9947 41.4669 35.8526 42.8754 33.5719 43.7415C33.5459 43.7509 33.5242 43.7653 33.5054 43.784C32.4553 44.3529 32.0892 45.137 32.2849 46.4028L33.1494 51.3092C33.2274 51.7024 33.1465 52.1027 32.9219 52.4354C32.6973 52.768 32.3578 52.9949 31.9621 53.0712C31.1496 53.231 30.3509 52.6852 30.1934 51.8881L29.2509 46.5928C28.9628 45.4803 27.8917 44.8913 27.1971 44.8129C27.1689 44.797 27.1357 44.7884 27.101 44.7869C19.6169 44.5177 13.6261 39.697 13.5662 39.6487C13.2557 39.3938 13.0621 39.0345 13.0217 38.6363C12.9827 38.2381 13.1011 37.8464 13.3554 37.5368C13.6421 37.1869 14.0675 36.9867 14.521 36.9867C14.8655 36.9867 15.2042 37.1062 15.4721 37.3251C15.6989 37.5087 21.0996 41.8268 27.5805 41.8268C31.4054 41.8268 34.8509 40.3435 37.8214 37.4202C38.3926 36.8564 39.385 36.8614 39.9498 37.4339C40.2322 37.719 40.3867 38.0978 40.3838 38.4981C40.3824 38.897 40.2227 39.2729 39.9359 39.5544ZM41.9205 29.1295C37.2146 29.1295 33.8492 32.032 33.7068 32.1552C33.4317 32.3957 33.0792 32.5289 32.7138 32.5289C32.2798 32.5289 31.8667 32.3431 31.5821 32.0191C31.3171 31.7174 31.1842 31.3314 31.2116 30.9311C31.2362 30.5315 31.4175 30.165 31.7201 29.9007C33.7811 28.0941 37.5541 26.165 41.9587 26.165C45.1321 26.165 48.1667 27.168 50.979 29.1483C51.3069 29.3794 51.5257 29.7243 51.5943 30.1196C51.6629 30.5142 51.5726 30.9124 51.3408 31.2393C51.0592 31.6375 50.5984 31.8751 50.1095 31.8751C49.7975 31.8751 49.4985 31.78 49.2428 31.5993C46.9137 29.9605 44.4502 29.1295 41.9205 29.1295ZM76.7636 50.4089C76.5051 50.7163 76.1411 50.9042 75.7417 50.9395C69.2571 51.5062 64.4263 50.082 61.4883 46.7279C61.0297 46.2059 60.6094 45.6205 60.2411 44.9883C60.2331 44.9724 60.2201 44.958 60.2093 44.9451C59.8193 44.5541 59.2849 44.3445 58.6197 44.3208C58.385 44.3129 58.1366 44.3273 57.8599 44.3661C57.8296 44.3597 55.9547 44.7708 54.1138 44.7096C49.9641 44.5735 47.2963 42.6337 47.185 42.5524C46.5162 42.0613 46.3739 41.1195 46.8672 40.4526C47.1611 40.053 47.6356 39.8248 48.1325 39.8435C48.4336 39.8536 48.7218 39.9529 48.9666 40.1315C49.0504 40.1913 51.0553 41.5176 54.1938 41.7034C55.7119 41.7934 57.2004 41.3152 57.3816 41.2389C58.5422 40.7529 58.4988 39.4698 58.4418 38.9729C58.1955 36.0712 58.7112 33.7569 58.7314 33.659C58.9105 32.8655 59.7273 32.3442 60.5318 32.5257C61.3386 32.7085 61.8499 33.5114 61.6686 34.3179C61.6541 34.3827 60.2834 40.8084 63.7659 44.7665C66.0409 47.3501 70.005 48.4287 75.4786 47.9492C76.3236 47.8794 77.0386 48.4986 77.1094 49.3137C77.1448 49.7126 77.0227 50.1014 76.7634 50.4089L76.7636 50.4089ZM75.5814 27.1738C72.8854 29.7515 71.5572 33.8516 72.2008 37.621C72.3272 38.3547 71.8289 39.0546 71.0936 39.1799C71.0171 39.1936 70.9391 39.1993 70.8625 39.1993C70.201 39.1993 69.6088 38.732 69.5294 38.0753C69.0347 34.0473 70.3418 30.3291 70.3577 30.291C70.4444 30.0793 70.456 29.8957 70.3895 29.7452C70.3108 29.5594 70.131 29.4572 69.9909 29.4024C65.9488 28.9567 58.6697 27.4223 55.2889 22.1624C54.7682 21.3977 53.4053 21.7894 51.1991 21.7865C41.287 21.77 39.8815 15.4228 39.8266 15.152C39.7551 14.7992 39.8258 14.4378 40.0252 14.1375C40.2252 13.8358 40.5293 13.6306 40.8846 13.5593C40.9734 13.5406 41.0644 13.5312 41.1547 13.5312C41.7895 13.5312 42.3463 13.9813 42.4799 14.6005C42.5225 14.782 43.6095 19.0807 51.2214 19.0807C51.5984 19.0807 51.9906 19.0706 52.387 19.049C53.2616 18.9424 53.7513 18.4831 53.8791 17.6471C54.004 14.723 56.214 12.5484 57.4995 11.7261C57.7176 11.5857 57.9704 11.5116 58.2296 11.5116C58.6947 11.5116 59.1208 11.7441 59.3729 12.133C59.5686 12.4361 59.6336 12.7976 59.5563 13.1497C59.4783 13.5025 59.2682 13.8042 58.9648 13.9993C58.8247 14.0915 55.543 16.2782 56.9333 19.5077C59.4365 25.3236 67.9513 26.5577 71.4959 26.8183C71.9429 26.7831 72.4528 26.5166 72.8897 26.0875C73.1887 25.744 73.4487 25.4668 73.7065 25.2213C77.1515 21.9293 77.3573 18.707 77.3645 18.5717C77.4027 17.8286 78.0397 17.2504 78.78 17.2886C79.5202 17.3217 80.1001 17.9481 80.072 18.6855C80.0662 18.8647 79.8575 23.0886 75.5814 27.1741L75.5814 27.1738Z" fill="#2C252C"/>
</svg>
