<svg width="107" height="100" viewBox="0 0 107 100" fill="none" xmlns="http://www.w3.org/2000/svg">
<path d="M35.6964 78.7121H73.3615C73.1629 80.4612 73.1131 82.1099 73.1131 83.6089V84.2588C73.1131 91.8534 67.0094 98 59.466 98H49.5408C41.9982 98 35.8938 91.8543 35.8938 84.2588V82.8594C35.8938 81.4599 35.8439 80.1115 35.6952 78.7121H35.6964ZM88 35.7399C88 42.9356 85.7171 49.8308 81.4493 55.6268C77.7773 60.6232 75.6431 66.0697 74.5016 71.2166H34.3057C32.817 65.4707 30.1868 59.7741 26.5147 54.1278C21.3042 46.2329 19.7165 36.6892 22.0485 27.2442C25.0758 14.7528 34.7526 5.41015 47.3081 2.76119C57.432 0.612264 67.7534 3.06065 75.5941 9.50671C83.4849 15.9529 88 25.4964 88 35.7393V35.7399ZM74.5516 30.4934C72.7156 23.1481 67.009 17.4022 59.6642 15.5034C57.6795 15.004 55.6451 16.2027 55.1483 18.202C54.6523 20.2004 55.8428 22.2489 57.8284 22.7986C62.4933 23.9981 66.1651 27.6453 67.3565 32.3421C67.8035 34.041 69.2922 35.1904 70.9795 35.1904C71.2769 35.1904 71.5751 35.1402 71.8726 35.0909C73.8573 34.5413 75.0984 32.4927 74.5527 30.4943L74.5516 30.4934Z" fill="#2C252C"/>
</svg>
