<svg width="100" height="100" viewBox="0 0 100 100" fill="none" xmlns="http://www.w3.org/2000/svg">
<path d="M29.6143 56.2366H36.1093C37.3392 56.2366 38.3391 55.2416 38.3391 54.0088V47.5138C38.3391 46.2839 37.3413 45.2861 36.1093 45.2861H29.6143C28.3843 45.2861 27.3844 46.2839 27.3844 47.5138V54.0088C27.3844 55.2415 28.3844 56.2366 29.6143 56.2366Z" fill="#2C252C"/>
<path d="M46.7529 56.2366H53.2479C54.4778 56.2366 55.4756 55.2416 55.4756 54.0088V47.5138C55.4756 46.2839 54.4806 45.2861 53.2479 45.2861H46.7529C45.5229 45.2861 44.5251 46.2839 44.5251 47.5138V54.0088C44.5279 55.2415 45.5229 56.2366 46.7529 56.2366Z" fill="#2C252C"/>
<path d="M63.8898 56.2366H70.3875C71.6175 56.2366 72.6153 55.2416 72.6153 54.0088V47.5138C72.6153 46.2839 71.6203 45.2861 70.3875 45.2861H63.8898C62.6621 45.2861 61.6621 46.2839 61.6621 47.5138V54.0088C61.6621 55.2415 62.6599 56.2366 63.8898 56.2366Z" fill="#2C252C"/>
<path d="M29.6143 73.5559H36.1093C37.3392 73.5559 38.3391 72.5609 38.3391 71.3282V64.8332C38.3391 63.6033 37.3413 62.6055 36.1093 62.6055H29.6143C28.3843 62.6055 27.3844 63.6004 27.3844 64.8332V71.3282C27.3844 72.5581 28.3844 73.5559 29.6143 73.5559Z" fill="#2C252C"/>
<path d="M46.7529 73.5559H53.2479C54.4778 73.5559 55.4756 72.5609 55.4756 71.3282V64.8332C55.4756 63.6033 54.4806 62.6055 53.2479 62.6055H46.7529C45.5229 62.6055 44.5251 63.6004 44.5251 64.8332V71.3282C44.5279 72.5581 45.5229 73.5559 46.7529 73.5559Z" fill="#2C252C"/>
<path d="M63.8898 73.5559H70.3875C71.6175 73.5559 72.6153 72.5609 72.6153 71.3282V64.8332C72.6153 63.6033 71.6203 62.6055 70.3875 62.6055H63.8898C62.6621 62.6055 61.6621 63.6004 61.6621 64.8332V71.3282C61.6621 72.5581 62.6599 73.5559 63.8898 73.5559Z" fill="#2C252C"/>
<path d="M31.3328 24.9155C33.5131 24.9155 35.2804 23.1482 35.2804 20.968V14.348C35.2804 12.1677 33.5131 10.4004 31.3328 10.4004C29.1554 10.4004 27.3853 12.1677 27.3853 14.348V20.9707C27.3853 23.1475 29.1554 24.9154 31.3328 24.9154V24.9155Z" fill="#2C252C"/>
<path d="M75.67 15.5801V20.9701C75.67 24.8301 72.5277 27.9724 68.6677 27.9724C64.805 27.9724 61.6627 24.8324 61.6627 20.9701L61.6621 15.4902H38.3378V20.9679C38.3378 24.8279 35.1955 27.9702 31.3328 27.9702C27.4728 27.9702 24.3305 24.8302 24.3305 20.9679L24.33 15.5801C18.2524 16.2877 13.5354 21.4478 13.5354 27.7129V77.3758C13.5354 84.1281 19.0081 89.6007 25.7603 89.6007H74.2431C80.9931 89.6007 86.468 84.1308 86.468 77.3758V27.7129C86.4652 21.4479 81.7481 16.2877 75.6706 15.5801H75.67ZM78.1895 71.743C78.1895 76.9628 73.9597 81.1927 68.7398 81.1927H31.2569C26.0394 81.1927 21.8094 76.9628 21.8094 71.743L21.8099 38.413H78.1928V71.743H78.1895Z" fill="#2C252C"/>
<path d="M68.667 24.9155C70.8444 24.9155 72.6117 23.1482 72.6117 20.968L72.6123 14.348C72.6123 12.1677 70.845 10.4004 68.6675 10.4004C66.4873 10.4004 64.72 12.1677 64.72 14.348V20.9707C64.7194 23.1475 66.4873 24.9154 68.667 24.9154L68.667 24.9155Z" fill="#2C252C"/>
</svg>
