<?xml version="1.0" encoding="UTF-8"?>
<svg width="100px" height="100px" viewBox="0 0 100 100" version="1.1" xmlns="http://www.w3.org/2000/svg" xmlns:xlink="http://www.w3.org/1999/xlink" style="background: #F8FAFC;">
    <!-- Generator: Sketch 51.3 (57544) - http://www.bohemiancoding.com/sketch -->
    <title>data</title>
    <desc>Created with Sketch.</desc>
    <defs></defs>
    <g id="Desktop" stroke="none" stroke-width="1" fill="none" fill-rule="evenodd">
        <g id="data">
            <rect fill="#F8FAFC" x="0" y="0" width="100" height="100"></rect>
            <g id="noun_data-science_1657077_565163" transform="translate(50.500000, 49.500000) rotate(-12.000000) translate(-50.500000, -49.500000) translate(16.000000, 15.000000)" fill="#565163" fill-rule="nonzero">
                <g id="Group">
                    <g id="Shape">
                        <path d="M67.9383409,64.1684318 C68.3884091,63.7285568 68.6079545,63.2243864 68.5969773,62.6535682 C68.5969773,62.0380568 68.3782159,61.5174205 67.9383409,61.0885227 L47.9001136,41.0510795 C50.9078864,36.682125 52.4117727,31.79175 52.4117727,26.3791705 C52.4117727,22.9111364 51.7484318,19.6014886 50.4193977,16.4510114 C49.1358409,13.2887727 47.24775,10.479375 44.7559091,8.02046591 C42.2860227,5.58429545 39.4860341,3.70796591 36.3582955,2.38990909 C33.1968409,1.08439773 29.8715114,0.43125 26.3807386,0.43125 C22.9228977,0.43125 19.5975682,1.08439773 16.4023977,2.39069318 C13.273875,3.70875 10.4809432,5.58507955 8.02125,8.02203409 C5.563125,10.4589886 3.67973864,13.2691705 2.37344318,16.4517955 C1.07890909,19.6022727 0.43125,22.9119205 0.43125,26.3807386 C0.43125,29.8715114 1.07890909,33.197625 2.37422727,36.3590795 C3.68052273,39.5424886 5.563125,42.3471818 8.02203409,44.772375 L8.02203409,44.7559091 C10.4817273,47.24775 13.2746591,49.1358409 16.4023977,50.4193977 C19.5858068,51.7468636 22.9119205,52.4117727 26.3807386,52.4117727 C31.7376477,52.4117727 36.6225341,50.9031818 41.0346136,47.8844318 L61.0885227,67.9383409 C61.49625,68.3782159 61.9996364,68.5969773 62.6049545,68.5969773 C63.2635909,68.5969773 63.7795227,68.3719432 64.1519659,67.921875 L67.9383409,64.1684318 Z M41.1828068,11.5951364 C41.1875114,11.6014091 41.193,11.6068977 41.1992727,11.6116023 C43.1689091,13.6031932 44.6829886,15.8543182 45.7438636,18.3610568 L45.7603295,18.3775227 C46.7921932,20.9258182 47.3073409,23.5932955 47.3073409,26.3799545 C47.3073409,29.1979773 46.7914091,31.886625 45.7603295,34.44825 C45.7571932,34.4553068 45.7509205,34.4600114 45.7438636,34.4647159 C44.6814205,36.9887045 43.1610682,39.2280682 41.1835909,41.1835909 L41.1835909,41.2000568 C39.1880795,43.1696932 36.9267614,44.6845568 34.3988523,45.7446477 L34.3823864,45.7611136 C31.8450682,46.7914091 29.1775909,47.308125 26.3799545,47.308125 C23.5932955,47.308125 20.9258182,46.7937614 18.3775227,45.7611136 L18.3610568,45.7446477 C15.8535341,44.6837727 13.6031932,43.1689091 11.6116023,41.2000568 L11.5951364,41.1835909 C9.62628409,39.2241477 8.11142045,36.9565568 7.05054545,34.3823864 L7.05054545,34.3988523 C5.99829545,31.8536932 5.47138636,29.1815114 5.46981818,26.3799545 C5.47060227,23.5909432 5.99751136,20.9234659 7.05054545,18.3783068 C8.11063636,15.861375 9.62471591,13.6063295 11.5951364,11.6116023 C11.5998409,11.6068977 11.6068977,11.6014091 11.6116023,11.5951364 C13.6055455,9.64745455 15.861375,8.14827273 18.3783068,7.09994318 C20.9234659,6.04690909 23.5909432,5.52 26.3807386,5.51921591 C29.1815114,5.52078409 31.8544773,6.04769318 34.3996364,7.09994318 L34.3823864,7.09994318 C36.9189205,8.14905682 39.1857273,9.64667045 41.1828068,11.5951364 Z"></path>
                    </g>
                </g>
                <g id="Group" transform="translate(6.000000, 12.000000)">
                    <g transform="translate(0.646102, 0.601747)" id="Shape">
                        <path d="M22.8926453,2.12632932 C22.880122,2.11319836 22.8675988,2.10181819 22.8550756,2.08956263 C21.8156462,1.0846066 20.5633217,0.582128583 19.098102,0.582128583 C17.6454056,0.582128583 16.3993427,1.09160978 15.3599133,2.10882137 L15.3411284,2.10882137 C14.3142223,3.12603297 13.7998748,4.35158911 13.7998748,5.78548979 C13.7998748,6.4796798 13.9188456,7.12309677 14.1567873,7.71574071 L8.74763986,13.0276512 C7.92557826,12.5995819 7.01227588,12.3842342 6.00504916,12.3842342 C4.39044505,12.3842342 3.01288808,12.94799 1.87237825,14.0755017 C0.720239694,15.1907578 0.145064933,16.5441219 0.145064933,18.1382203 C0.145064933,19.7314432 0.720239694,21.092686 1.87237825,22.2201976 C3.01199356,23.3231981 4.38955053,23.873823 6.00504916,23.873823 C7.64559428,23.873823 9.0356745,23.3223227 10.1761843,22.2201976 L10.1949692,22.2201976 C11.3345845,21.092686 11.9043922,19.7314432 11.9043922,18.1382203 C11.9043922,17.1560246 11.6852354,16.2613686 11.2469218,15.4542523 L16.5057902,10.3261753 C17.2804424,10.7551199 18.1445463,10.9695923 19.098102,10.9695923 C20.1348478,10.9695923 21.0678296,10.7174778 21.8970473,10.2149998 L27.2516291,15.4542523 C26.8007923,16.2648702 26.5753739,17.1595262 26.5753739,18.1382203 C26.5753739,19.7200631 27.1630719,21.079555 28.3402569,22.2193222 C29.4798723,23.3231981 30.8636909,23.873823 32.4917127,23.873823 C34.1197346,23.873823 35.5026587,23.3223227 36.6431685,22.2193222 C37.7827838,21.0918106 38.3525915,19.7314432 38.3525915,18.1382203 C38.3525915,17.1665293 38.1405908,16.2850043 37.7130115,15.491019 L41.264246,12.0165674 C41.0594015,10.6807112 40.7221684,9.37549388 40.2507576,8.10091549 L35.2155186,13.0267758 C34.3988241,12.5978311 33.4908888,12.3833588 32.4917127,12.3833588 C31.4898531,12.3833588 30.5747617,12.5987065 29.7500165,13.0267758 L24.1154507,7.49426521 C24.3032994,6.96552527 24.3972238,6.39476627 24.3972238,5.78461439 C24.3963292,4.36296927 23.8953994,3.14354091 22.8926453,2.12632932 Z M35.4033672,18.1373449 C35.4033672,18.9339564 35.1215942,19.61414 34.5580482,20.1778958 C33.9945022,20.7171405 33.3057237,20.9867629 32.4908182,20.9867629 C31.6759128,20.9867629 30.9808726,20.7110128 30.4065924,20.1595125 C29.8179999,19.5957567 29.5237036,18.9217008 29.5237036,18.1373449 C29.5237036,17.3407334 29.8179999,16.6605497 30.4065924,16.0967939 C30.9951849,15.5339135 31.690225,15.2511602 32.4908182,15.2511602 C33.2806772,15.2511602 33.9685611,15.5330381 34.5580482,16.0967939 C35.1215942,16.6605497 35.4033672,17.3416088 35.4033672,18.1373449 Z M17.4459282,4.1301136 C17.896765,3.67665783 18.4477878,3.44905455 19.099891,3.44905455 C19.7385765,3.44905455 20.2949664,3.67578244 20.7708498,4.1301136 L20.7896346,4.14849695 C21.2404714,4.60195272 21.4658899,5.1473252 21.4658899,5.78461439 C21.4658899,6.42190358 21.2458386,6.96727607 20.8084195,7.42073184 C20.7950017,7.42073184 20.783373,7.42685962 20.7708498,7.43911518 C20.3074897,7.86805983 19.7502053,8.08340755 19.0989965,8.08340755 C18.4477878,8.08340755 17.896765,7.86805983 17.4450336,7.43911518 L17.4262488,7.42073184 C16.9754119,6.96727607 16.7499935,6.42190358 16.7499935,5.78461439 C16.7499935,5.1473252 16.9816736,4.60195272 17.4450336,4.14849695 L17.4459282,4.1301136 Z M3.95839309,20.1778958 L3.93960822,20.1595125 C3.37606219,19.6080122 3.09428917,18.9339564 3.09428917,18.1373449 C3.09428917,17.3284778 3.3814293,16.6491696 3.95839309,16.0967939 C4.52193912,15.5339135 5.20445599,15.2511602 6.00594368,15.2511602 C6.81995462,15.2511602 7.52125635,15.5330381 8.10984887,16.0967939 C8.6733949,16.6605497 8.95516792,17.3407334 8.95516792,18.1373449 C8.95516792,18.9339564 8.6733949,19.6088876 8.10984887,20.1595125 L8.10984887,20.1778958 C7.53377959,20.7171405 6.83247786,20.9867629 6.00594368,20.9867629 C5.20535051,20.9867629 4.52193912,20.7171405 3.95839309,20.1778958 Z"></path>
                    </g>
                </g>
            </g>
        </g>
    </g>
</svg>