<svg width="100" height="100" viewBox="0 0 100 100" fill="none" xmlns="http://www.w3.org/2000/svg">
<path d="M100 0H0V100H100V0Z" fill="#F8FAFC"/>
<path d="M89.376 71.5679C89.7248 71.0441 89.8347 70.5053 89.7053 69.9492C89.5774 69.3471 89.2551 68.8834 88.7357 68.5553L64.9693 53.1219C67.003 48.2231 67.4573 43.1269 66.3319 37.8326C65.6109 34.4403 64.2739 31.3409 62.3189 28.5356C60.406 25.7093 57.975 23.3539 55.0264 21.4668C52.104 19.5974 48.9751 18.3442 45.6416 17.7052C42.2778 17.0856 38.8894 17.1381 35.4749 17.8638C32.0926 18.5828 28.9757 19.913 26.122 21.8551C23.3359 23.7948 20.9941 26.2108 19.0948 29.1059C17.1971 32.0007 15.9391 35.141 15.3231 38.5257C14.7118 41.8765 14.7664 45.2484 15.4876 48.6415C16.2134 52.056 17.5385 55.1747 19.4628 57.9978C21.4024 60.84 23.827 63.192 26.7364 65.053L26.733 65.0369C29.657 66.9629 32.7814 68.229 36.1077 68.8342C39.4975 69.4708 42.8892 69.4297 46.2822 68.7085C51.5221 67.5947 55.9866 65.1034 59.6746 61.2333L83.4597 76.6796C83.95 77.0251 84.4879 77.1344 85.08 77.0085C85.7242 76.8716 86.1821 76.5442 86.4528 76.0265L89.376 71.5679ZM52.2746 25.7062C52.2805 25.7114 52.287 25.7156 52.2941 25.7189C54.6348 27.2575 56.5838 29.1446 58.1427 31.376L58.1622 31.3887C59.7013 33.6668 60.7598 36.1688 61.3392 38.8946C61.9251 41.6511 61.9795 44.3882 61.5035 47.1082C61.5019 47.1158 61.4967 47.1217 61.4908 47.1278C60.9764 49.8175 59.9548 52.324 58.4271 54.6479L58.4306 54.6641C56.8882 57.0055 54.9912 58.9575 52.739 60.52L52.7263 60.5395C50.4586 62.0748 47.9569 63.1348 45.2204 63.7165C42.4946 64.2959 39.7785 64.3474 37.0712 63.8671L37.0516 63.8544C34.3783 63.3381 31.8622 62.3242 29.5048 60.8124L29.4853 60.7997C27.152 59.2925 25.1988 57.3894 23.6259 55.092L23.6294 55.1081C22.0709 52.8374 21 50.3331 20.4159 47.5931C19.8368 44.8649 19.7976 42.1462 20.2985 39.4377C20.8121 36.7553 21.8243 34.2348 23.3369 31.874C23.3405 31.8684 23.3463 31.8616 23.3496 31.8544C24.895 29.5348 26.7898 27.5993 29.0338 26.0506C31.3044 24.4914 33.8041 23.4214 36.5327 22.8406C39.2726 22.2598 41.9967 22.2195 44.705 22.7196L44.6882 22.7232C47.3874 23.222 49.916 24.2156 52.2746 25.7062Z" fill="#2C252C"/>
<path d="M41.5363 31.1917C41.5214 31.1814 41.5068 31.1729 41.492 31.1635C40.2663 30.3966 38.9369 30.1655 37.5037 30.4701C36.0827 30.7722 34.9698 31.5296 34.1646 32.7407L34.1462 32.7446C33.3532 33.9531 33.1049 35.2588 33.4031 36.6614C33.5474 37.3404 33.7975 37.945 34.1535 38.4752L29.967 44.7957C29.0739 44.5479 28.1357 44.5271 27.1505 44.7365C25.5712 45.0722 24.341 45.9101 23.4598 47.2501C22.5647 48.5805 22.2835 50.0239 22.6149 51.5831C22.9462 53.1415 23.7918 54.3535 25.1532 55.2168C26.4972 56.0587 27.9591 56.3109 29.5393 55.975C31.144 55.634 32.3891 54.8055 33.2755 53.4903L33.2939 53.4864C34.1742 52.1466 34.4485 50.6966 34.1173 49.1382C33.9131 48.1775 33.5127 47.348 32.9161 46.6496L36.9939 40.5402C37.8408 40.7987 38.7306 40.8289 39.6633 40.6306C40.6774 40.4151 41.5376 39.9745 42.2442 39.3106L48.5711 43.3221C48.2987 44.2087 48.2642 45.1307 48.4677 46.088C48.7965 47.6352 49.6541 48.8428 51.0425 49.7129C52.3867 50.5558 53.8548 50.8066 55.4472 50.4682C57.0397 50.1297 58.2777 49.3027 59.164 47.9867C60.0442 46.6469 60.3188 45.1978 59.9875 43.6393C59.7855 42.6889 59.3948 41.8707 58.8115 41.183L61.5628 37.0461C61.0847 35.782 60.4834 34.5754 59.7573 33.4267L55.8563 39.2918C54.9682 39.0421 54.0356 39.021 53.0582 39.2288C52.0782 39.4371 51.2279 39.838 50.5102 40.4282L43.8485 36.1881C43.9223 35.6318 43.8955 35.054 43.7686 34.4572C43.4722 33.0668 42.7287 31.9782 41.5363 31.1917ZM57.1026 44.2517C57.2682 45.0309 57.134 45.7548 56.7 46.4234C56.2608 47.068 55.6432 47.4749 54.8461 47.6444C54.049 47.8138 53.3118 47.6886 52.6354 47.2685C51.9425 46.8395 51.5145 46.2413 51.3514 45.4741C51.1858 44.6949 51.3322 43.9684 51.7907 43.2946C52.2494 42.6216 52.8705 42.2006 53.6536 42.0341C54.4262 41.8699 55.1576 42.0026 55.8515 42.4315C56.5199 42.8657 56.9371 43.4733 57.1026 44.2517ZM36.6253 34.2841C36.972 33.7468 37.4636 33.4096 38.1015 33.274C38.7262 33.1412 39.3176 33.2473 39.8775 33.5928L39.8997 33.6069C40.435 33.9567 40.7689 34.4433 40.9014 35.0666C41.0339 35.69 40.932 36.2692 40.5984 36.8037C40.5853 36.8065 40.5752 36.8149 40.5655 36.8295C40.2015 37.3454 39.7011 37.6719 39.0641 37.8073C38.4272 37.9427 37.8434 37.8466 37.3124 37.521L37.2902 37.5069C36.7549 37.1571 36.421 36.6705 36.2885 36.0471C36.156 35.4238 36.2693 34.8421 36.6282 34.3023L36.6253 34.2841ZM26.769 52.7854L26.7468 52.7713C26.0809 52.3491 25.6651 51.7483 25.4995 50.9691C25.3313 50.1779 25.471 49.4538 25.9205 48.7935C26.3547 48.1257 26.9635 47.7073 27.7475 47.5406C28.5437 47.3714 29.2883 47.5013 29.9812 47.9304C30.6497 48.3646 31.0667 48.9714 31.2323 49.7506C31.3979 50.5298 31.2626 51.2485 30.8259 51.9043L30.8297 51.9223C30.3784 52.5695 29.7484 52.979 28.94 53.1509C28.1569 53.3173 27.4323 53.1957 26.769 52.7854Z" fill="#2C252C"/>
</svg>
