<svg width="100" height="100" viewBox="0 0 100 100" fill="none" xmlns="http://www.w3.org/2000/svg">
<path d="M100 0H0V100H100V0Z" fill="#F8FAFC"/>
<path d="M35.9187 61.9677C34.6273 61.9677 33.5769 62.998 33.5769 64.2647C33.5769 65.5313 34.6273 66.5616 35.9187 66.5616C43.2362 66.5616 49.19 60.721 49.19 53.5435C49.19 47.2284 44.5373 41.8397 38.2605 40.7401V36.6977C38.2605 30.3636 43.5134 25.2112 49.9711 25.2112C56.4289 25.2112 61.6818 30.3636 61.6818 36.6977V38.2293C61.6818 39.496 62.7322 40.5263 64.0236 40.5263C65.3159 40.5263 66.3654 39.496 66.3654 38.2293V36.6977C66.3654 27.8311 59.0117 20.6164 49.9711 20.6164C40.9306 20.6164 33.5769 27.8311 33.5769 36.6977V42.8241C33.5769 44.0908 34.6273 45.1211 35.9187 45.1211C40.6535 45.1211 44.5064 48.8994 44.5064 53.5444C44.5064 58.1894 40.6535 61.9677 35.9187 61.9677Z" fill="#2C252C"/>
<path d="M77.8944 37.5382C76.7142 22.4088 64.9158 11 50.4503 11C35.3145 11 23 22.9799 23 37.7046C23 38.9214 24.7115 39.6 25.963 39.6C27.2145 39.6 29.1069 38.755 29.1069 37.5382C29.1069 25.2463 37.8167 17.0667 50.4503 17.0667C62.7141 17.0667 70.8765 24.6916 71.8936 37.7046C72.6923 47.9408 67.6006 52.4587 62.0883 57.8C58.135 61.6315 54.0774 65.7369 51.3916 72.5333C48.5713 79.6669 47.0951 82.9333 41.5623 82.9333C35.4643 82.9333 30.8897 79.7587 30.8897 73.8238C30.8897 72.6061 29.484 71.6164 28.2325 71.6164C26.9809 71.6164 25.963 72.6061 25.963 73.8238C25.963 82.1923 32.9604 89 41.5623 89C50.1419 89 54.0587 82.0857 57.0127 74.6151C59.3535 68.6957 63.2908 64.8798 67.097 61.1913C73.1433 55.3317 78.8518 49.7989 77.8944 37.5382Z" fill="#2C252C"/>
</svg>
