<?xml version="1.0" encoding="UTF-8"?>
<svg width="100px" height="100px" viewBox="0 0 100 100" version="1.1" xmlns="http://www.w3.org/2000/svg" xmlns:xlink="http://www.w3.org/1999/xlink" style="background: #F8FAFC;">
    <!-- Generator: Sketch 51.3 (57544) - http://www.bohemiancoding.com/sketch -->
    <title>ear</title>
    <desc>Created with Sketch.</desc>
    <defs></defs>
    <g id="Desktop" stroke="none" stroke-width="1" fill="none" fill-rule="evenodd">
        <g id="ear">
            <rect fill="#F8FAFC" x="0" y="0" width="100" height="100"></rect>
            <g id="noun_Ear_429064_565163" transform="translate(23.000000, 11.000000)" fill="#565163" fill-rule="nonzero">
                <g id="Group-2">
                    <path d="M12.9187038,50.9677293 C11.6273261,50.9677293 10.5769231,51.9980268 10.5769231,53.2646866 C10.5769231,54.5313464 11.6273261,55.5616438 12.9187038,55.5616438 C20.2362171,55.5616438 26.1899718,49.7209829 26.1899718,42.5435326 C26.1899718,36.2284153 21.5373045,30.8396999 15.2604846,29.7401388 L15.2604846,25.6977365 C15.2604846,19.3635717 20.5133822,14.2112186 26.9711538,14.2112186 C33.4289255,14.2112186 38.6818231,19.3635717 38.6818231,25.6977365 L38.6818231,27.2293299 C38.6818231,28.4959897 39.7322261,29.5262871 41.0236038,29.5262871 C42.3158643,29.5262871 43.3653846,28.4959897 43.3653846,27.2293299 L43.3653846,25.6977365 C43.3653846,16.8311179 36.011681,9.61643836 26.9711538,9.61643836 C17.9306267,9.61643836 10.5769231,16.8311179 10.5769231,25.6977365 L10.5769231,31.8241102 C10.5769231,33.09077 11.6273261,34.1210674 12.9187038,34.1210674 C17.6534615,34.1210674 21.5064103,37.8994019 21.5064103,42.5443984 C21.5064103,47.1893948 17.6534615,50.9677293 12.9187038,50.9677293 Z" id="Shape"></path>
                    <path d="M54.8944059,26.5382 C53.714207,11.4088 41.9157828,0 27.4503228,0 C12.3145384,0 0,11.9799333 0,26.7046 C0,27.9214 1.71146679,28.6 2.96297688,28.6 C4.21448697,28.6 6.10690572,27.755 6.10690572,26.5382 C6.10690572,14.2462667 14.8166672,6.06666667 27.4503228,6.06666667 C39.714052,6.06666667 47.8765007,13.6916 48.8935755,26.7046 C49.69226,36.9408 44.6006463,41.4587333 39.088297,46.8 C35.134987,50.6315333 31.0773845,54.7369333 28.3916296,61.5333333 C25.5712749,68.6668667 24.0951348,71.9333333 18.5622836,71.9333333 C12.4642917,71.9333333 7.88968363,68.7587333 7.88968363,62.8238 C7.88968363,61.6061333 6.48396325,60.6164 5.23245316,60.6164 C3.98094307,60.6164 2.96297688,61.6061333 2.96297688,62.8238 C2.96297688,71.1923333 9.96038017,78 18.5622836,78 C27.1419022,78 31.0586653,71.0857333 34.0127283,63.6150667 C36.3535157,57.6957333 40.2907807,53.8798 44.0970115,50.1912667 C50.1433028,44.3317333 55.8517577,38.7989333 54.8944059,26.5382 Z" id="Shape"></path>
                </g>
            </g>
        </g>
    </g>
</svg>