<?xml version="1.0" encoding="UTF-8"?>
<svg width="100px" height="100px" viewBox="0 0 100 100" version="1.1" xmlns="http://www.w3.org/2000/svg" xmlns:xlink="http://www.w3.org/1999/xlink">
    <!-- Generator: Sketch 51.3 (57544) - http://www.bohemiancoding.com/sketch -->
    <title>email</title>
    <desc>Created with Sketch.</desc>
    <defs></defs>
    <g id="Desktop" stroke="none" stroke-width="1" fill="none" fill-rule="evenodd">
        <g id="email" fill="#4B4656" fill-rule="nonzero">
            <g transform="translate(7.000000, 22.000000)" id="Shape">
                <path d="M43.8011202,35.6345204 L79.6226396,2.09614826 C80.4237598,1.39743217 79.8515311,0 78.8215193,0 L7.17848068,0 C6.14846895,0 5.5762402,1.28097949 6.37736044,2.09614826 L42.1988798,35.7509731 C42.6566628,36.1003311 43.3433372,36.1003311 43.8011202,35.6345204 Z"></path>
                <path d="M0,6.12295743 L0,53.8770426 C0,54.9027866 1.2780083,55.3586729 1.97510373,54.6748435 L27.6514523,30.1709573 C28.1161826,29.7150711 28.1161826,28.9172701 27.6514523,28.4613839 L1.97510373,5.32515648 C1.16182573,4.6413271 0,5.09721335 0,6.12295743 Z"></path>
                <path d="M86,53.7918371 L86,6.12099982 C86,5.09704389 84.8333333,4.64195236 84.0166667,5.32458965 L58.35,28.4204846 C57.8833333,28.8755761 57.8833333,29.6719863 58.35,30.1270778 L84.0166667,54.7020202 C84.7166667,55.3846575 86,54.8157931 86,53.7918371 Z"></path>
                <path d="M6.181614,60 L78.818386,60 C79.8511363,60 80.4248865,58.7004219 79.6216362,57.9915612 L54.2618786,32.3544304 C53.8028784,31.8818565 53.1143782,31.8818565 52.6553781,32.3544304 L43.2458752,41.2151899 C42.7868751,41.6877637 42.0983749,41.6877637 41.6393747,41.2151899 L32.3446219,32.3544304 C31.8856218,31.8818565 31.1971216,31.8818565 30.7381214,32.3544304 L5.37836376,57.9915612 C4.57511352,58.7004219 5.14886369,60 6.181614,60 Z"></path>
            </g>
        </g>
    </g>
</svg>