<svg width="100" height="100" viewBox="0 0 100 100" fill="none" xmlns="http://www.w3.org/2000/svg">
<path d="M50.8011 57.6345L86.6226 24.0961C87.4238 23.3974 86.8515 22 85.8215 22H14.1785C13.1485 22 12.5762 23.281 13.3774 24.0961L49.1989 57.751C49.6567 58.1003 50.3433 58.1003 50.8011 57.6345Z" fill="#2C252C"/>
<path d="M7 28.123V75.877C7 76.9028 8.27801 77.3587 8.9751 76.6748L34.6515 52.171C35.1162 51.7151 35.1162 50.9173 34.6515 50.4614L8.9751 27.3252C8.16183 26.6413 7 27.0972 7 28.123Z" fill="#2C252C"/>
<path d="M93 75.7918V28.121C93 27.097 91.8333 26.642 91.0167 27.3246L65.35 50.4205C64.8833 50.8756 64.8833 51.672 65.35 52.1271L91.0167 76.702C91.7167 77.3847 93 76.8158 93 75.7918Z" fill="#2C252C"/>
<path d="M13.1816 82H85.8184C86.8511 82 87.4249 80.7004 86.6216 79.9916L61.2619 54.3544C60.8029 53.8819 60.1144 53.8819 59.6554 54.3544L50.2459 63.2152C49.7869 63.6878 49.0984 63.6878 48.6394 63.2152L39.3446 54.3544C38.8856 53.8819 38.1971 53.8819 37.7381 54.3544L12.3784 79.9916C11.5751 80.7004 12.1489 82 13.1816 82Z" fill="#2C252C"/>
</svg>
