<svg width="338" height="300" viewBox="0 0 338 300" fill="none" xmlns="http://www.w3.org/2000/svg">
<g clip-path="url(#clip0_442_852)">
<path d="M241.432 25.1999C254.632 25.1999 265.432 27.8999 273.832 33.2999C282.232 38.6999 289.132 45.5999 294.532 53.9999C301.132 63.6 305.332 74.1 307.132 85.5C308.932 96.9 309.832 106.2 309.832 113.4C309.832 142.8 302.332 169.5 287.332 193.5C272.332 217.5 248.932 237 217.132 252L209.032 235.8C227.632 228 243.532 215.7 256.732 198.9C270.532 182.1 277.432 165 277.432 147.6C277.432 140.4 276.532 134.1 274.732 128.7C265.132 136.5 254.032 140.4 241.432 140.4C225.832 140.4 212.332 135.3 200.932 125.1C189.532 114.9 183.832 100.8 183.832 82.8C183.832 66 189.532 52.2 200.932 41.3999C212.332 30.5999 225.832 25.1999 241.432 25.1999ZM88.4324 25.1999C101.632 25.1999 112.432 27.8999 120.832 33.2999C129.232 38.6999 136.132 45.5999 141.532 53.9999C148.132 63.6 152.332 74.1 154.132 85.5C155.932 96.9 156.832 106.2 156.832 113.4C156.832 142.8 149.332 169.5 134.332 193.5C119.332 217.5 95.9324 237 64.1324 252L56.0324 235.8C74.6324 228 90.5324 215.7 103.732 198.9C117.532 182.1 124.432 165 124.432 147.6C124.432 140.4 123.532 134.1 121.732 128.7C112.132 136.5 101.032 140.4 88.4324 140.4C72.8324 140.4 59.3324 135.3 47.9324 125.1C36.5324 114.9 30.8324 100.8 30.8324 82.8C30.8324 66 36.5324 52.2 47.9324 41.3999C59.3324 30.5999 72.8324 25.1999 88.4324 25.1999Z" fill="#D3D1D4"/>
</g>
<defs>
<clipPath id="clip0_442_852">
<rect width="338" height="300" fill="white"/>
</clipPath>
</defs>
</svg>
