<svg width="107" height="100" viewBox="0 0 107 100" fill="none" xmlns="http://www.w3.org/2000/svg">
<path d="M101.635 70.0001C100.375 71.9743 98.5817 73.6586 96.3735 74.8272C94.1652 75.991 91.6907 76.7563 89.2238 76.5796C85.9434 76.3501 85.4839 76.061 82.3601 75.1297C78.805 74.0792 74.2864 74.0946 69.9339 76.4528C65.1189 79.0656 62.0236 83.7975 61.1024 87.3186C60.9051 88.0666 60.991 88.6571 61.3761 89.1833C62.198 90.2827 64.21 91 65.3689 91L89.1537 90.9414C96.6694 90.9337 101.198 86.148 101.917 77.4801C102.096 75.2016 101.979 72.6934 101.634 70L101.635 70.0001Z" fill="#2C252C"/>
<path d="M85.0203 14C83.2767 14 81.5225 14.3997 79.9615 15.1954C76.9484 16.7184 75.0842 19.5243 75.0842 22.5145C75.0842 23.4697 74.3318 24.2422 73.395 24.2422C72.4582 24.2422 71.6973 23.4697 71.6973 22.5145C71.6973 19.5233 69.8351 16.7262 66.8295 15.1954C63.6968 13.608 59.8109 13.608 56.6946 15.1954C53.6816 16.7261 51.8403 19.5243 51.8078 22.5145C51.7925 24.0279 49.8892 25.032 48.7238 23.485C47.7965 22.2589 46.6303 21.1261 45.1457 20.3775C42.0226 18.7843 38.1445 18.7766 35.027 20.3775C32.012 21.9005 30.2033 24.7064 30.1402 27.688C30.1086 29.0275 28.212 30.3189 27.0229 28.6201C26.2056 27.4564 25.1349 26.4129 23.7402 25.7182C21.0042 24.3546 17.5935 24.3546 14.8566 25.7182C12.0012 27.1278 9.76417 29.8077 8.9977 32.7173L4 58.3396C4.04684 61.2587 5.88511 63.9848 8.82076 65.4905C11.9133 67.0702 15.7447 67.0702 18.8218 65.4905C20.2786 64.742 21.4677 63.683 22.3196 62.4292V47.5458C22.3196 46.5907 23.0719 45.8181 24.0087 45.8181C24.9417 45.8181 25.7036 46.5907 25.7036 47.5458V62.9807C25.7036 66.5119 27.8296 69.8194 31.248 71.6134C34.7698 73.4622 39.1423 73.4622 42.6621 71.6134C46.0882 69.8194 48.2124 66.5121 48.2124 62.9807L48.2114 47.5458C48.2114 46.5907 48.9666 45.8181 49.9005 45.8181C50.8374 45.8181 51.5983 46.5907 51.5983 47.5458V62.9807C51.5983 66.5119 53.7243 69.8194 57.1505 71.6134C60.6723 73.4622 65.0408 73.4622 68.5531 71.6134C71.9792 69.8194 74.1053 66.5121 74.1053 62.9807L74.1044 47.5458C74.1044 46.5907 74.8567 45.8181 75.7935 45.8181C76.7303 45.8181 77.4913 46.5907 77.4913 47.5458V62.9807C77.4913 66.5119 79.6154 69.8271 83.0415 71.6134C86.5575 73.4622 90.9358 73.4622 94.4556 71.6134C97.8577 69.8367 99.9753 66.5697 100 63.0604C100 63.0604 94.8046 21.2249 94.8046 21.1831C94.795 19.5822 93.0915 16.7196 90.0841 15.1967C88.5259 14.4001 86.7748 14.0004 85.0206 14.0004L85.0203 14Z" fill="#2C252C"/>
</svg>
