<svg width="100" height="100" viewBox="0 0 100 100" fill="none" xmlns="http://www.w3.org/2000/svg">
<path d="M100 0H0V100H100V0Z" fill="#F8FAFC"/>
<path d="M83 39.3824V41.6505C83.0013 43.4514 81.7741 44.9925 80.0913 45.3033L78.4962 45.6C78.2994 46.2035 78.0675 46.7936 77.8019 47.367L78.7339 48.7648C79.7159 50.2375 79.5496 52.2415 78.3398 53.5121L76.8135 55.1209C75.6081 56.396 73.7069 56.5714 72.3097 55.5363L70.9836 54.5538C70.4396 54.8339 69.8797 55.0783 69.3072 55.2857L69.0257 56.9341C68.7332 58.7093 67.2697 60.0041 65.5603 60H63.4085C61.7 60.0014 60.2379 58.7079 59.943 56.9341L59.6615 55.2527C59.089 55.0453 58.5291 54.8009 57.9851 54.5209L56.659 55.5033C55.2618 56.5384 53.3606 56.363 52.1552 55.0879L50.6289 53.4791C49.4192 52.2086 49.2528 50.2046 50.2348 48.7319L51.1669 47.3341C50.9011 46.7607 50.6692 46.1706 50.4725 45.567L48.9087 45.3033C47.2245 44.995 45.9961 43.4524 46 41.6505V39.3824C45.9961 37.5806 47.2245 36.038 48.9087 35.7297L50.5038 35.433C50.7006 34.8295 50.9325 34.2393 51.1981 33.6659L50.2661 32.2681C49.2832 30.7934 49.4495 28.787 50.6602 27.5143L52.1552 25.9451C53.3606 24.6699 55.2618 24.4946 56.659 25.5297L57.9851 26.5121C58.5284 26.2209 59.0883 25.9654 59.6615 25.7473L59.943 24.0659C60.2379 22.2921 61.7 20.9986 63.4085 21H65.5603C67.2697 20.9959 68.7332 22.2907 69.0257 24.0659L69.3072 25.7473C69.8798 25.9546 70.4396 26.199 70.9836 26.4791L72.3097 25.4967C73.7069 24.4616 75.6081 24.637 76.8135 25.9121L78.3085 27.5209C79.5183 28.7914 79.6846 30.7954 78.7026 32.2681L77.7706 33.6659C78.0361 34.2394 78.268 34.8295 78.4649 35.433L80.06 35.7297C81.7567 36.0237 83.0013 37.5701 83 39.3824ZM79.8724 39.3824C79.8723 39.1847 79.738 39.0153 79.5533 38.9802L77.0137 38.5121C76.4114 38.4059 75.9228 37.9398 75.7626 37.3187C75.5002 36.2895 75.1112 35.3008 74.6054 34.378C74.3004 33.8219 74.3297 33.1297 74.6805 32.6044L76.163 30.3758C76.273 30.2124 76.2544 29.9891 76.1192 29.8484L74.5929 28.2396C74.4582 28.0996 74.2482 28.0802 74.0925 28.1934L71.9907 29.7626C71.4924 30.1323 70.8356 30.1632 70.308 29.8418C69.4326 29.3086 68.4946 28.8985 67.5182 28.622C66.9289 28.4531 66.4867 27.9382 66.386 27.3033L65.9481 24.6264C65.9148 24.4318 65.7541 24.2902 65.5665 24.2901H63.4085C63.2189 24.2907 63.0575 24.4357 63.0269 24.633L62.5828 27.3099C62.482 27.9448 62.0399 28.4597 61.4506 28.6286C60.4741 28.9052 59.5362 29.3152 58.6607 29.8484C58.1331 30.1698 57.4764 30.1389 56.978 29.7692L54.8637 28.2066C54.7087 28.0907 54.4969 28.1102 54.3633 28.2528L52.837 29.8615C52.7018 30.0023 52.6832 30.2256 52.7932 30.389L54.2757 32.611C54.6265 33.1363 54.6558 33.8285 54.3508 34.3846C53.8451 35.3075 53.4561 36.2961 53.1936 37.3253C53.0334 37.9464 52.5448 38.4125 51.9425 38.5187L49.4029 38.9868C49.2182 39.0219 49.0839 39.1913 49.0839 39.389V41.6571C49.0844 41.857 49.222 42.0271 49.4091 42.0593L51.9488 42.5275C52.5511 42.6337 53.0397 43.0997 53.1998 43.7209C53.4621 44.7502 53.8512 45.7388 54.3571 46.6615C54.662 47.2177 54.6327 47.9099 54.282 48.4352L52.7995 50.6637C52.6895 50.8271 52.708 51.0504 52.8433 51.1912L54.3696 52.8C54.5031 52.9426 54.715 52.9621 54.87 52.8461L56.9843 51.2835C57.4826 50.9138 58.1393 50.8829 58.667 51.2044C59.5314 51.7295 60.4565 52.135 61.4193 52.411C62.0086 52.5798 62.4507 53.0948 62.5515 53.7297L62.9956 56.4066C63.0289 56.6012 63.1896 56.7428 63.3772 56.7428H65.529C65.7166 56.7428 65.8773 56.6012 65.9106 56.4066L66.3547 53.7297C66.4554 53.0948 66.8976 52.5798 67.4869 52.411C68.4633 52.1342 69.4012 51.7241 70.2768 51.1912C70.8044 50.8697 71.4611 50.9006 71.9594 51.2703L74.0737 52.833C74.2287 52.9489 74.4406 52.9294 74.5741 52.7868L76.1004 51.178C76.2357 51.0373 76.2542 50.8139 76.1442 50.6505L74.6867 48.4286C74.3386 47.9048 74.3094 47.216 74.6117 46.6615C75.1153 45.7469 75.5042 44.7673 75.7689 43.7472C75.9291 43.1261 76.4176 42.66 77.02 42.5538L79.5596 42.0593C79.7442 42.0243 79.8786 41.8549 79.8786 41.6571L79.8724 39.3824ZM71.8656 40.5165C71.8656 44.8134 68.5609 48.2967 64.4844 48.2967C60.4078 48.2967 57.1031 44.8134 57.1031 40.5165C57.1031 36.2196 60.4078 32.7363 64.4844 32.7363C68.5595 32.7399 71.8621 36.2211 71.8656 40.5165ZM68.738 40.5165C68.738 38.0403 66.8336 36.033 64.4844 36.033C62.1352 36.033 60.2308 38.0403 60.2308 40.5165C60.2308 42.9927 62.1352 45 64.4844 45C66.8336 45 68.738 42.9927 68.738 40.5165Z" fill="#2C252C"/>
<path d="M34.7771 61.9809C34.7771 66.9102 38.7101 70.9063 43.5618 70.9063C48.4135 70.9063 52.3465 66.9102 52.3465 61.9809C52.3465 60.9093 53.2015 60.0406 54.2563 60.0406C55.311 60.0406 56.166 60.9093 56.166 61.9809C56.166 67.1611 53.0942 71.8311 48.3834 73.8128C43.6727 75.7945 38.2508 74.6974 34.6466 71.0333C31.0425 67.3692 29.966 61.8599 31.9193 57.0749C33.8726 52.2899 38.4708 49.1718 43.5694 49.1749C44.6242 49.1749 45.4792 50.0436 45.4792 51.1152C45.4792 52.1868 44.6242 53.0555 43.5694 53.0555C38.7165 53.0555 34.7813 57.0503 34.7771 61.9809Z" fill="#2C252C"/>
<path d="M22.2722 69.1134C22.6236 70.1792 23.0525 71.2169 23.5556 72.2179L21.9361 74.5463C20.5556 76.5389 20.7878 79.252 22.4861 80.9725L24.8465 83.3707C26.54 85.0962 29.2103 85.3322 31.1715 83.9296L33.4632 82.2842C34.461 82.7967 35.4951 83.2325 36.5569 83.5881L37.0458 86.4054C37.4306 88.8221 39.4793 90.6016 41.8889 90.6119H45.2271C47.6282 90.6174 49.6836 88.8635 50.0931 86.4597L50.5819 83.6424C51.6308 83.2851 52.6521 82.8493 53.6375 82.3385L55.9292 83.9839C57.8912 85.3832 60.5593 85.1475 62.2542 83.4251L64.6528 81.0269C66.3511 79.3063 66.5833 76.5932 65.2028 74.6006L63.5833 72.2722C64.0862 71.2711 64.5151 70.2334 64.8667 69.1678L67.6396 68.671C68.3374 68.5808 68.9299 68.1081 69.1817 67.4408C69.4335 66.7734 69.3038 66.0194 68.8441 65.4784C68.3844 64.9373 67.6692 64.6969 66.9826 64.8525L63.0486 65.551C62.3131 65.6761 61.7164 66.2246 61.5208 66.9558C61.1032 68.5364 60.4843 70.0549 59.6799 71.4728C59.3107 72.1255 59.3464 72.9363 59.7715 73.5528L62.0632 76.8824C62.3744 77.3322 62.3229 77.9442 61.941 78.3337L59.5806 80.7319C59.1971 81.12 58.5948 81.1723 58.1521 80.8561L54.8826 78.5278C54.274 78.0926 53.4721 78.0562 52.8278 78.4346C51.4323 79.252 49.9377 79.8808 48.3819 80.3051C47.6623 80.5038 47.1223 81.11 46.9993 81.8573L46.3194 85.7922C46.2265 86.3355 45.7622 86.7319 45.2194 86.7313H41.8889C41.3462 86.7319 40.8818 86.3355 40.7889 85.7922L40.1014 81.7952C39.9783 81.0479 39.4384 80.4417 38.7187 80.243C37.1632 79.8181 35.6687 79.1894 34.2729 78.3725C33.6286 77.9941 32.8266 78.0305 32.2181 78.4657L28.9486 80.794C28.5059 81.1103 27.9036 81.0579 27.5201 80.6698L25.1597 78.2716C24.7778 77.8821 24.7263 77.2701 25.0375 76.8203L27.3292 73.4985C27.7575 72.8802 27.7933 72.0654 27.4208 71.4107C26.6169 70.0081 25.9955 68.5054 25.5722 66.9403C25.3766 66.2091 24.78 65.6605 24.0444 65.5355L20.1104 64.837C19.5673 64.7336 19.1806 64.2416 19.2014 63.6806V60.289C19.2045 59.7405 19.5938 59.273 20.1257 59.1791L24.0597 58.4806C24.7953 58.3556 25.3919 57.807 25.5875 57.0758C26.0046 55.495 26.6235 53.9764 27.4285 52.5588C27.8009 51.9042 27.7651 51.0894 27.3368 50.471L25.0451 47.1493C24.7339 46.6994 24.7854 46.0875 25.1674 45.6979L27.5278 43.2997C27.9112 42.9117 28.5135 42.8593 28.9562 43.1755C29.362 43.4656 30.0953 42.3998 31.1562 39.9779C29.1951 38.5753 26.5247 38.8112 24.8312 40.5367L22.4708 42.9349C20.7568 44.6461 20.5052 47.363 21.875 49.369L23.4944 51.6973C22.9896 52.7109 22.5606 53.7616 22.2111 54.8406L19.4382 55.3373C17.0815 55.7672 15.3702 57.8563 15.3819 60.289V63.6806C15.3759 66.1177 17.0982 68.2051 19.4611 68.6245L22.2722 69.1134Z" fill="#2C252C"/>
<path d="M40.2563 21.3177C37.5931 21.4107 35.5096 23.645 35.6026 26.3082C35.6956 28.9714 37.9299 31.055 40.5931 30.962C41.1721 30.9418 41.6578 31.3947 41.678 31.9737C41.6983 32.5526 41.2453 33.0384 40.6663 33.0586C37.8676 33.1563 35.2856 31.5583 34.1247 29.0098C32.9637 26.4613 33.4525 23.4644 35.363 21.4168C37.2736 19.3693 40.2295 18.6744 42.8522 19.6564C45.4748 20.6383 47.2476 23.1036 47.3436 25.9024C47.3639 26.4814 46.9109 26.9671 46.332 26.9873C45.753 27.0075 45.2673 26.5546 45.2471 25.9756C45.154 23.3117 42.9203 21.2269 40.2563 21.3177Z" fill="#2C252C"/>
<path d="M36.5966 12.4017L36.3787 13.9528C35.8026 14.1685 35.2433 14.4268 34.7055 14.7256L33.4005 13.8697C32.2838 13.1403 30.8043 13.3212 29.8961 14.2983L28.6302 15.6564C27.7193 16.6309 27.6421 18.12 28.4473 19.1836L29.3918 20.4263C29.1309 20.9908 28.9125 21.5741 28.7387 22.1713L27.2072 22.4969C25.8927 22.757 24.9592 23.93 25.0003 25.2699L25.0651 27.1258C25.1087 28.4609 26.108 29.5701 27.4308 29.7519L28.9813 29.9698C29.1971 30.5461 29.4553 31.1056 29.7538 31.6438L28.8983 32.9493C28.171 34.0669 28.3517 35.5457 29.3268 36.4552L30.6851 37.7429C31.6592 38.6543 33.1477 38.7315 34.2108 37.926L35.453 36.9811C36.0103 37.2416 36.5862 37.4602 37.176 37.6353L37.5015 39.1675C37.5644 39.5538 37.8344 39.8742 38.2044 40.0014C38.5743 40.1286 38.9842 40.0421 39.2712 39.7762C39.5582 39.5103 39.6759 39.1081 39.5774 38.7293L39.1189 36.5554C39.0363 36.1489 38.7246 35.8277 38.3209 35.7329C37.4482 35.5308 36.6056 35.2158 35.8144 34.7956C35.4502 34.6028 35.0075 34.6382 34.6785 34.8863L32.9018 36.224C32.6618 36.4056 32.326 36.3887 32.1055 36.1838L30.7479 34.9173C30.5282 34.7115 30.4879 34.3776 30.6523 34.1254L31.8624 32.2632C32.0886 31.9166 32.0929 31.47 31.8734 31.119C31.3992 30.3587 31.0263 29.5398 30.764 28.683C30.6413 28.2866 30.2993 27.998 29.8881 27.9439L27.7226 27.6411C27.4236 27.5998 27.1978 27.3492 27.1876 27.0474L27.1229 25.1957C27.112 24.894 27.3199 24.6283 27.6152 24.5662L29.7882 24.1076C30.1945 24.025 30.5156 23.7132 30.6104 23.3093C30.8125 22.4363 31.1275 21.5934 31.5471 20.8018C31.7416 20.4363 31.7062 19.9912 31.4563 19.6611L30.1193 17.8879C29.9377 17.6477 29.9546 17.3119 30.1594 17.0913L31.4254 15.7331C31.6311 15.5134 31.9648 15.473 32.2169 15.6375L34.0783 16.8481C34.4249 17.0745 34.8712 17.0788 35.2221 16.8592C35.9737 16.3854 36.7836 16.0113 37.6314 15.746C38.0276 15.6233 38.3161 15.2811 38.3702 14.8698L38.6759 12.6692C38.7219 12.3653 38.9835 12.1409 39.2907 12.1418L41.1459 12.077C41.446 12.0682 41.7092 12.2758 41.7709 12.5697L42.2294 14.7435C42.312 15.1501 42.6237 15.4713 43.0274 15.5661C43.9002 15.7678 44.7428 16.0829 45.5339 16.5034C45.8992 16.6979 46.3442 16.6625 46.6741 16.4125L48.4465 15.075C48.6865 14.8933 49.0223 14.9103 49.2428 15.1152L50.6004 16.3817C50.8201 16.5875 50.8604 16.9214 50.696 17.1735L49.4859 19.0358C49.2597 19.3824 49.2554 19.829 49.4749 20.18C49.9495 20.9319 50.325 21.742 50.5919 22.5902C50.7146 22.9866 51.0566 23.2752 51.4678 23.3293L53.6674 23.6352C54.052 23.707 54.4449 23.5616 54.69 23.2566C54.9351 22.9516 54.9928 22.5365 54.8401 22.1762C54.6874 21.8159 54.3491 21.5687 53.9596 21.5329L52.4055 21.3363C52.1904 20.7527 51.932 20.1861 51.6323 19.6412L52.4878 18.3356C53.2169 17.2184 53.036 15.7383 52.0593 14.8297L50.7017 13.5632C49.7324 12.643 48.2415 12.555 47.1709 13.3549L45.9287 14.2997C45.3645 14.0384 44.7815 13.8199 44.1845 13.6462L43.859 12.1141C43.578 10.812 42.4021 9.90049 41.0718 9.95346L39.2166 10.0182C37.8834 10.0614 36.7751 11.0589 36.5916 12.3806L36.5966 12.4017Z" fill="#2C252C"/>
</svg>
