<?xml version="1.0" encoding="UTF-8"?>
<svg width="100px" height="100px" viewBox="0 0 100 100" version="1.1" xmlns="http://www.w3.org/2000/svg" xmlns:xlink="http://www.w3.org/1999/xlink" style="background: #F8FAFC;">
    <!-- Generator: Sketch 51.3 (57544) - http://www.bohemiancoding.com/sketch -->
    <title>gears</title>
    <desc>Created with Sketch.</desc>
    <defs></defs>
    <g id="Desktop" stroke="none" stroke-width="1" fill="none" fill-rule="evenodd">
        <g id="gears">
            <rect fill="#F8FAFC" x="0" y="0" width="100" height="100"></rect>
            <g id="noun_Gears_843318_565163-(2)" transform="translate(15.000000, 9.000000)" fill="#565163" fill-rule="nonzero">
                <path d="M67.9999989,30.3824181 L67.9999989,32.6505489 C68.0013191,34.4513738 66.7741288,35.9924762 65.0912931,36.3032943 L63.4961963,36.5999975 C63.2993597,37.2034639 63.067476,37.7935899 62.8018601,38.3670296 L63.733897,39.7648311 C64.7159249,41.2375177 64.5495652,43.2415419 63.3398143,44.5120815 L61.8135256,46.1208719 C60.6081416,47.3960145 58.7068875,47.5713666 57.3097229,46.5362563 L55.9836033,45.5538392 C55.4396098,45.8339041 54.879741,46.0783243 54.3071879,46.2857069 L54.0257002,47.9340578 C53.7331851,49.7092924 52.2696807,51.0040843 50.5602743,50.9999903 L48.4084574,50.9999903 C46.6999822,51.0013818 45.2379103,49.7078572 44.9430315,47.9340578 L44.6615439,46.2527399 C44.0890131,46.0452947 43.529148,45.8008761 42.9851284,45.5208722 L41.6590088,46.5032893 C40.2618442,47.5383996 38.3605901,47.3630474 37.1552061,46.0879048 L35.6289175,44.4791144 C34.4191665,43.2085749 34.2528068,41.2045507 35.2348347,39.731864 L36.1668717,38.3340625 C35.9010964,37.7606986 35.6692086,37.1705621 35.4725354,36.5670305 L33.9087151,36.3032943 C32.2245178,35.9949677 30.9961251,34.4523553 31.0000092,32.6505489 L31.0000092,30.3824181 C30.9961251,28.5806117 32.2245178,27.0379994 33.9087151,26.7296727 L35.5038118,26.4329695 C35.7005743,25.8294736 35.9324599,25.2393427 36.1981481,24.6659375 L35.2661111,23.268136 C34.2831583,21.793375 34.4494812,19.7870126 35.6601939,18.5142922 L37.1552061,16.9450622 C38.3605901,15.6699196 40.2618442,15.4945675 41.6590088,16.5296778 L42.9851284,17.5120949 C43.5283915,17.220856 44.0882719,16.9654205 44.6615439,16.7472601 L44.9430315,15.0659422 C45.2379103,13.2921428 46.6999822,11.9986182 48.4084574,12.0000097 L50.5602743,12.0000097 C52.2696807,11.9959157 53.7331851,13.2907076 54.0257002,15.0659422 L54.3071879,16.7472601 C54.8797692,16.9545642 55.4396425,17.1989864 55.9836033,17.4791278 L57.3097229,16.4967107 C58.7068875,15.4616004 60.6081416,15.6369526 61.8135256,16.9120952 L63.3085379,18.5208856 C64.5182888,19.7914251 64.6846485,21.7954493 63.7026206,23.268136 L62.7705836,24.6659375 C63.0360989,25.2394249 63.26798,25.8295444 63.4649199,26.4329695 L65.0600167,26.7296727 C66.7566477,27.0236529 68.001316,28.570076 67.9999989,30.3824181 Z M64.8723582,30.3824181 C64.8723086,30.1846662 64.7379734,30.0153056 64.5533389,29.9802205 L62.0136946,29.5120889 C61.4113798,29.4058875 60.922818,28.9398392 60.7626383,28.3186829 C60.500227,27.2894582 60.1111826,26.3008479 59.6054112,25.378025 C59.3004338,24.8219017 59.3297296,24.1296901 59.6804746,23.6043995 L61.1629763,21.3758292 C61.2729763,21.2124495 61.2544368,20.9891175 61.1191893,20.8483569 L59.5929007,19.2395665 C59.4582151,19.0995942 59.2481794,19.0802227 59.0924782,19.1934127 L56.9907036,20.7626427 C56.4923509,21.1323468 55.8356371,21.1632262 55.3080329,20.8417635 C54.4325658,20.3085854 53.4946447,19.8985078 52.5181774,19.6219839 C51.9288751,19.4531459 51.4867267,18.9381755 51.3859714,18.3033033 L50.9481017,15.6263815 C50.9148159,15.4317668 50.7541404,15.2901702 50.5665295,15.2901179 L48.4084574,15.2901179 C48.2188557,15.2907248 48.0574655,15.43574 48.0268853,15.6329749 L47.5827603,18.3098967 C47.4820051,18.9447689 47.0398567,19.4597393 46.4505544,19.6285773 C45.4741102,19.905173 44.5361977,20.3152467 43.6606988,20.8483569 C43.1330946,21.1698196 42.4763808,21.1389402 41.9780281,20.7692361 L39.863743,19.2065995 C39.7087417,19.0906536 39.4968626,19.1101952 39.3633205,19.2527533 L37.8370318,20.8615437 C37.7017843,21.0023043 37.6832449,21.2256363 37.7932448,21.389016 L39.2757465,23.6109929 C39.6264916,24.1362835 39.6557873,24.8284952 39.3508099,25.3846184 C38.845103,26.3074749 38.4560622,27.296076 38.1935828,28.3252763 C38.0334031,28.9464326 37.5448414,29.4124809 36.9425266,29.5186823 L34.4028823,29.9868139 C34.2182478,30.021899 34.0839125,30.1912596 34.0838629,30.3890115 L34.0838629,32.6571423 C34.0844387,32.8569927 34.2220173,33.0271067 34.4091376,33.0593399 L36.9487818,33.5274715 C37.5510966,33.633673 38.0396584,34.0997212 38.1998381,34.7208775 C38.4621132,35.7501511 38.8511649,36.7387796 39.3570652,37.6615354 C39.6620426,38.2176587 39.6327468,38.9098703 39.2820018,39.4351609 L37.7995001,41.6637312 C37.6895002,41.8271109 37.7080396,42.0504429 37.8432871,42.1912035 L39.3695758,43.7999939 C39.5031179,43.942552 39.714997,43.9620936 39.8699983,43.8461477 L41.9842834,42.2835111 C42.4826361,41.913807 43.1393499,41.8829277 43.6669541,42.2043903 C44.5314258,42.7295124 45.4564818,43.1350482 46.4192779,43.4109831 C47.0085802,43.5798211 47.4507287,44.0947915 47.5514839,44.7296638 L47.9956089,47.4065855 C48.0288947,47.6012002 48.1895701,47.7427968 48.377181,47.7428491 L50.5289979,47.7428491 C50.7166088,47.7427968 50.8772842,47.6012002 50.91057,47.4065855 L51.354695,44.7296638 C51.4554502,44.0947915 51.8975987,43.5798211 52.486901,43.4109831 C53.4632758,43.1341727 54.4011624,42.7241103 55.2767565,42.1912035 C55.8043607,41.8697409 56.4610745,41.9006202 56.9594272,42.2703243 L59.0737123,43.8329609 C59.2287136,43.9489068 59.4405927,43.9293652 59.5741348,43.7868071 L61.1004235,42.1780167 C61.235671,42.0372561 61.2542104,41.8139241 61.1442105,41.6505444 L59.6867299,39.4285675 C59.3386216,38.9047776 59.3093633,38.2160224 59.6116665,37.6615354 C60.1152522,36.7468925 60.5042353,35.7673032 60.7688936,34.7472511 C60.9290733,34.1260948 61.4176351,33.6600466 62.0199499,33.5538451 L64.5595941,33.0593399 C64.7442287,33.0242549 64.8785639,32.8548943 64.8786135,32.6571423 L64.8723582,30.3824181 Z M56.865598,31.5164835 C56.865598,35.8133781 53.5609078,39.2966994 49.4843659,39.2966994 C45.4078239,39.2966994 42.1031338,35.8133781 42.1031338,31.5164835 C42.1031338,27.2195889 45.4078239,23.7362676 49.4843659,23.7362676 C53.5594783,23.7399031 56.8621489,27.2210957 56.865598,31.5164835 Z M53.7379572,31.5164835 C53.7379572,29.040307 51.8335595,27.0329693 49.4843659,27.0329693 C47.1351722,27.0329693 45.2307745,29.040307 45.2307745,31.5164835 C45.2307745,33.9926601 47.1351722,35.9999978 49.4843659,35.9999978 C51.8335595,35.9999978 53.7379572,33.9926601 53.7379572,31.5164835 Z" id="Shape"></path>
                <g id="Big-Gear" transform="translate(0.000000, 30.000000)">
                    <path d="M19.7770833,22.9808955 C19.7770833,27.910243 23.7101374,31.9062687 28.5618056,31.9062687 C33.4134737,31.9062687 37.3465278,27.910243 37.3465278,22.9808955 C37.3465278,21.9092982 38.2015395,21.040597 39.25625,21.040597 C40.3109605,21.040597 41.1659722,21.9092982 41.1659722,22.9808955 C41.1659713,28.161133 38.0942375,32.8311447 33.3834453,34.8128099 C28.6726531,36.7944752 23.2507775,35.6974275 19.6466127,32.0333363 C16.0424479,28.369245 14.9659752,22.8598965 16.9192678,18.0748827 C18.8725604,13.289869 23.4708409,10.1717858 28.5694444,10.1749254 C29.6241549,10.1749254 30.4791667,11.0436266 30.4791667,12.1152239 C30.4791667,13.1868212 29.6241549,14.0555224 28.5694444,14.0555224 C23.7165391,14.0555205 19.7812996,18.0502929 19.7770833,22.9808955 Z" id="Path"></path>
                    <path d="M7.27222222,30.1134328 C7.62355936,31.1791901 8.05252327,32.2168853 8.55555556,33.2179104 L6.93611111,35.5462687 C5.55560337,37.5388632 5.78780637,40.2519521 7.48611111,41.9725373 L9.84652778,44.3707463 C11.5399991,46.0962423 14.2103336,46.3321631 16.1715278,44.9295522 L18.4631944,43.2841791 C19.4609565,43.7966761 20.4950993,44.2325221 21.5569444,44.5880597 L22.0458333,47.4053731 C22.4305993,49.8221308 24.479319,51.6016018 26.8888889,51.6119403 L30.2270833,51.6119403 C32.6282105,51.61742 34.683566,49.8635409 35.0930556,47.4597015 L35.5819444,44.6423881 C36.6307777,44.2850775 37.6520953,43.8492562 38.6375,43.3385075 L40.9291667,44.9838806 C42.8912256,46.3832279 45.5592891,46.1475077 47.2541667,44.4250746 L49.6527778,42.0268657 C51.3510825,40.3062804 51.5832855,37.5931916 50.2027778,35.600597 L48.5833333,33.2722388 C49.0861864,32.2711291 49.5151446,31.2334476 49.8666667,30.1677612 L52.6395833,29.6710448 C53.337427,29.5808324 53.9299516,29.1081321 54.181743,28.4407508 C54.4335344,27.7733696 54.3038172,27.0193845 53.8441287,26.4783588 C53.3844403,25.9373331 52.6692236,25.6968816 51.9826389,25.8525373 L48.0486111,26.5510448 C47.3130701,26.6760561 46.7164432,27.2246484 46.5208333,27.9558209 C46.1031642,29.5364402 45.4842823,31.0549305 44.6798611,32.4728358 C44.3106914,33.1255308 44.3464213,33.9362749 44.7715278,34.5528358 L47.0631944,37.8823881 C47.3744384,38.3322196 47.322905,38.9441587 46.9409722,39.3337313 L44.5805556,41.7319403 C44.197122,42.1199882 43.5948261,42.1723466 43.1520833,41.8561194 L39.8826389,39.5277612 C39.2740554,39.0925769 38.472083,39.0562284 37.8277778,39.4346269 C36.4322552,40.2520071 34.9376836,40.8808022 33.3819444,41.3050746 C32.6622942,41.5038164 32.1223469,42.1099958 31.9993056,42.8573134 L31.3194444,46.7922388 C31.2265131,47.3355053 30.7621652,47.7319337 30.2194444,47.7313433 L26.8888889,47.7313433 C26.3461682,47.7319337 25.8818203,47.3355053 25.7888889,46.7922388 L25.1013889,42.7952239 C24.9783476,42.0479063 24.4384002,41.4417269 23.71875,41.2429851 C22.1632069,40.8181262 20.6687086,40.189362 19.2729167,39.3725373 C18.6286115,38.9941388 17.826639,39.0304874 17.2180556,39.4656716 L13.9486111,41.7940299 C13.5058683,42.110257 12.9035725,42.0578986 12.5201389,41.6698507 L10.1597222,39.2716418 C9.77778942,38.8820691 9.72625608,38.27013 10.0375,37.8202985 L12.3291667,34.4985075 C12.7574931,33.8801801 12.7932688,33.0653673 12.4208333,32.4107463 C11.6168665,31.0081299 10.9954728,29.5054296 10.5722222,27.9402985 C10.3766123,27.2091261 9.77998543,26.6605337 9.04444444,26.5355224 L5.11041667,25.8370149 C4.56727381,25.7335838 4.18057613,25.2416471 4.20138889,24.680597 L4.20138889,21.2889552 C4.20450996,20.740478 4.59382298,20.2730142 5.12569444,20.1791045 L9.05972222,19.480597 C9.7952632,19.3555857 10.3918901,18.8069933 10.5875,18.0758209 C11.004589,16.4950014 11.6235014,14.9764361 12.4284722,13.558806 C12.8009077,12.9041849 12.765132,12.0893722 12.3368056,11.4710448 L10.0451389,8.14925373 C9.73389497,7.69942223 9.78542831,7.08748312 10.1673611,6.69791045 L12.5277778,4.29970149 C12.9112114,3.91165362 13.5135072,3.85929519 13.95625,4.17552239 C14.3619723,4.46564524 15.0953056,3.39977459 16.15625,0.977910448 C14.1950558,-0.424700401 11.5247213,-0.188779633 9.83125,1.53671642 L7.47083333,3.93492537 C5.75684731,5.64613866 5.50525275,8.36295026 6.875,10.3689552 L8.49444444,12.6973134 C7.98960515,13.7108551 7.56061414,14.7615879 7.21111111,15.840597 L4.43819444,16.3373134 C2.08153548,16.7672471 0.370240106,18.8563002 0.381944444,21.2889552 L0.381944444,24.680597 C0.375910154,27.1177013 2.09819012,29.2050753 4.46111111,29.6244776 L7.27222222,30.1134328 Z" id="Path"></path>
                </g>
                <g id="Big-Gear" transform="translate(25.000000, 16.000000) rotate(88.000000) translate(-25.000000, -16.000000) translate(10.000000, 1.000000)">
                    <path d="M11.3288426,14.6152845 C11.3288426,17.2801159 13.4891155,19.4403886 16.1539471,19.4403886 C18.8187787,19.4403886 20.9790516,17.2801159 20.9790516,14.6152845 C20.9790516,14.0359733 21.4486761,13.5663488 22.0279873,13.5663488 C22.6072985,13.5663488 23.0769231,14.0359733 23.0769231,14.6152845 C23.0769226,17.4157484 21.3897393,19.9403815 18.8022853,21.0116803 C16.2148313,22.082979 13.236807,21.4899092 11.2571802,19.509082 C9.27755338,17.5282549 8.68628904,14.5498717 9.75915631,11.9630679 C10.8320236,9.37626404 13.3576792,7.69061172 16.1581428,7.69230897 C16.7374541,7.69230897 17.2070786,8.16193347 17.2070786,8.74124466 C17.2070786,9.32055584 16.7374541,9.79018034 16.1581428,9.79018034 C13.4926317,9.79017933 11.3311585,11.9497745 11.3288426,14.6152845 Z" id="Path"></path>
                    <path d="M2.29057755,17.9616796 L3.83318906,18.2335399 C4.02864272,18.8168446 4.26728121,19.3847907 4.54712496,19.9326667 L3.64620584,21.2070118 C2.87821049,22.2975884 3.0073882,23.7825023 3.95217837,24.7242043 L5.26531048,26.0367797 C6.20741177,26.9811694 7.69295541,27.1102923 8.78399457,26.3426225 L10.0588801,25.4420853 C10.6139488,25.7225825 11.1892566,25.9611276 11.7799756,26.1557186 L12.0519512,27.6976762 C12.2660018,29.0204036 13.4057326,29.9943346 14.7462093,29.999993 L16.6032926,29.999993 C17.9390725,30.0029921 19.0824949,29.043068 19.3102995,27.7274109 L19.5822751,26.1854533 C20.1657554,25.9898919 20.7339283,25.7513604 21.2821225,25.4718201 L22.557008,26.3723573 C23.6485283,27.1382408 25.1328085,27.0092277 26.0756921,26.0665144 L27.4100723,24.753939 C28.3548625,23.8122371 28.4840402,22.3273231 27.7160449,21.2367465 L26.8151257,19.9624014 C27.0948698,19.4144791 27.3335051,18.8465406 27.5290616,18.2632746 L29.0716731,17.9914143 C29.4598931,17.9420397 29.7895227,17.6833238 29.9295977,17.3180561 C30.0696727,16.9527884 29.9975092,16.5401211 29.7417783,16.2440097 C29.4860473,15.9478983 29.0881624,15.8162956 28.706206,15.9014883 L26.5176524,16.2837918 C26.1084609,16.3522124 25.7765492,16.6524652 25.6677288,17.0526467 C25.4353737,17.9177432 25.0910812,18.7488356 24.6435707,19.5248762 C24.4381965,19.8821059 24.4580736,20.3258382 24.6945661,20.6632912 L25.9694517,22.4856047 C26.1426009,22.7318042 26.1139322,23.0667275 25.9014578,23.2799465 L24.5883257,24.5925219 C24.3750163,24.8049063 24.0399509,24.8335629 23.793647,24.660487 L21.9748103,23.3861419 C21.636247,23.1479591 21.1900987,23.128065 20.8316629,23.3351681 C20.0553146,23.7825325 19.223864,24.1266814 18.358385,24.358892 C17.9580337,24.4676663 17.6576536,24.7994373 17.589204,25.2084554 L17.210988,27.3620986 C17.159289,27.6594365 16.9009659,27.8764076 16.5990429,27.8760845 L14.7462093,27.8760845 C14.4442863,27.8764076 14.1859632,27.6594365 14.1342642,27.3620986 L13.7517986,25.1744729 C13.683349,24.7654548 13.3829689,24.4336838 12.9826176,24.3249095 C12.1172477,24.0923779 11.2858378,23.7482459 10.5093397,23.3011856 C10.1509039,23.0940824 9.70475561,23.1139765 9.3661923,23.3521594 L7.5473556,24.6265045 C7.30105171,24.7995803 6.96598629,24.7709238 6.75267695,24.5585394 L5.43954484,23.2459639 C5.22707039,23.032745 5.19840169,22.6978216 5.37155094,22.4516222 L6.64643648,20.6335565 C6.88472033,20.2951367 6.90462285,19.8491775 6.69743191,19.4908937 C6.25017417,18.7232209 5.9044843,17.9007706 5.66902424,17.0441511 C5.56020377,16.6439695 5.22829206,16.3437168 4.81910054,16.2752962 L2.63054703,15.8929927 C2.32838922,15.8363833 2.11326401,15.567139 2.12484243,15.2600679 L2.12484243,13.4037719 C2.12657872,13.1035821 2.34315889,12.8477323 2.63904627,12.7963341 L4.82759978,12.4140305 C5.2367913,12.34561 5.568703,12.0453572 5.67752347,11.6451757 C5.90955581,10.7799696 6.25386524,9.94883624 6.70168152,9.17294616 C6.90887247,8.81466231 6.88896995,8.36870317 6.6506861,8.03028338 L5.37580056,6.2122177 C5.20265131,5.96601822 5.23132001,5.63109484 5.44379446,5.41787591 L6.75692656,4.10530045 C6.97023591,3.89291608 7.30530133,3.86425953 7.55160522,4.03733538 L9.37044192,5.31168049 C9.70900523,5.54986332 10.1551535,5.56975741 10.5135893,5.36265429 C11.2815858,4.91453976 12.1043364,4.567589 12.9613695,4.33043476 C13.3617208,4.22166042 13.6621009,3.88988941 13.7305505,3.48087135 L14.1130161,1.29324559 C14.1982449,0.911451053 14.0665865,0.513734848 13.7703495,0.258112287 C13.4741125,0.00248972694 13.0612702,-0.0696431727 12.6958476,0.0703724728 C12.330425,0.210388118 12.0715994,0.539877903 12.0222038,0.927933326 L11.7714764,2.47413872 C11.1807685,2.66875956 10.6054629,2.90730369 10.0503809,3.18777198 L8.77549534,2.28723477 C7.68445617,1.51956498 6.19891253,1.64868792 5.25681124,2.5930776 L3.94367914,3.90565305 C2.99016525,4.84222556 2.85019975,6.32917698 3.6122089,7.42709336 L4.51312801,8.70143847 C4.232279,9.25616491 3.99362543,9.8312466 3.79919211,10.4218044 L2.2565806,10.6936646 C0.945538958,10.9289738 -0.00647808705,12.0723436 3.31968967e-05,13.4037719 L3.31968967e-05,15.2600679 C-0.0033237617,16.5939314 0.954804165,17.7363823 2.26932946,17.9659274 L2.29057755,17.9616796 Z" id="Path"></path>
                </g>
            </g>
        </g>
    </g>
</svg>