<?xml version="1.0" encoding="UTF-8"?>
<svg width="100px" height="100px" viewBox="0 0 100 100" version="1.1" xmlns="http://www.w3.org/2000/svg" xmlns:xlink="http://www.w3.org/1999/xlink">
    <!-- Generator: Sketch 51.3 (57544) - http://www.bohemiancoding.com/sketch -->
    <title>github</title>
    <desc>Created with Sketch.</desc>
    <defs></defs>
    <g id="Desktop" stroke="none" stroke-width="1" fill="none" fill-rule="evenodd">
        <g id="github" fill="#4B4656" fill-rule="nonzero">
            <g transform="translate(10.000000, 10.000000)" id="Shape">
                <path d="M40.5003354,0 C18.1355496,0 0,18.1320595 0,40.5000301 C0,58.3940041 11.6045788,73.5751442 27.6966012,78.9303925 C29.7206789,79.3052931 30.4637798,78.0518232 30.4637798,76.9821148 C30.4637798,76.0163591 30.4262223,72.8260128 30.4087849,69.4418447 C19.1415525,71.8917785 16.7640323,64.6633667 16.7640323,64.6633667 C14.9217056,59.9821354 12.2671994,58.7373837 12.2671994,58.7373837 C8.59260609,56.2237369 12.5441854,56.2753778 12.5441854,56.2753778 C16.6111199,56.5610804 18.7525647,60.4489172 18.7525647,60.4489172 C22.3647858,66.640483 28.2271,64.8504819 30.538224,63.815648 C30.9017264,61.1980483 31.951323,59.4114005 33.1095673,58.4000399 C24.1138895,57.3759364 14.6574623,53.9032407 14.6574623,38.384757 C14.6574623,33.9630721 16.2395694,30.350208 18.8303623,27.5139718 C18.409853,26.4938926 17.0235811,22.3746771 19.2227034,16.7960978 C19.2227034,16.7960978 22.6236639,15.7076108 30.3631794,20.947505 C33.5937903,20.0501573 37.0584641,19.600142 40.5003354,19.5847168 C43.9422067,19.600142 47.4095633,20.0501573 50.6462097,20.947505 C58.3763361,15.7076108 61.7726016,16.7960978 61.7726016,16.7960978 C63.9770897,22.3746771 62.5901469,26.4938926 62.1696376,27.5139718 C64.7664666,30.350208 66.3378429,33.9630721 66.3378429,38.384757 C66.3378429,53.9401274 56.8633077,57.3652062 47.8448272,58.367848 C49.2974954,59.6246719 50.5918856,62.0893599 50.5918856,65.8678786 C50.5918856,71.2868402 50.5449391,75.648165 50.5449391,76.9821148 C50.5449391,78.0598712 51.2739555,79.3227305 53.3268721,78.9250269 C69.4101757,73.5637425 81,58.3879681 81,40.5000301 C81,18.1320595 62.8671334,0 40.5003354,0 Z M15.1686926,57.6931478 C15.0794936,57.8943468 14.762938,57.9547065 14.4745506,57.81655 C14.1807977,57.6844289 14.0158133,57.4101277 14.1110482,57.2082582 C14.1982351,57.0010228 14.5154614,56.9433459 14.8085435,57.0821732 C15.1029671,57.2142939 15.2706342,57.491278 15.1686926,57.6931478 Z M17.1608591,59.470718 C16.9677065,59.6497851 16.5901201,59.5666228 16.3339247,59.283603 C16.0690106,59.0012537 16.0193812,58.62367 16.2152164,58.44192 C16.4144049,58.2628528 16.78059,58.3466859 17.0461748,58.6290353 C17.3110888,58.9147378 17.3627303,59.2896388 17.1608591,59.470718 Z M18.5275607,61.7450584 C18.2794134,61.917419 17.8736589,61.7557889 17.6228288,61.3956428 C17.3746814,61.0354964 17.3746814,60.603589 17.6281942,60.4305579 C17.8796948,60.2575267 18.2794134,60.4131209 18.5335967,60.7705844 C18.7810735,61.1367666 18.7810735,61.5686736 18.5275607,61.7450584 Z M20.8389457,64.3790658 C20.6169544,64.6238586 20.1441331,64.5581333 19.798068,64.2241431 C19.443955,63.8975295 19.3453668,63.434101 19.5680288,63.1893088 C19.7927027,62.9438462 20.2682067,63.0129244 20.6169544,63.3442322 C20.9683848,63.670175 21.0756917,64.1369567 20.8389457,64.3790658 Z M23.8261864,65.2682771 C23.7282689,65.5855011 23.2728849,65.7296936 22.8141475,65.5948904 C22.3560809,65.4560631 22.056292,65.0845157 22.1488443,64.7639385 C22.2440792,64.4447028 22.7014752,64.294474 23.1635659,64.4386665 C23.6209618,64.5768233 23.9214214,64.9456882 23.8261864,65.2682771 Z M27.2257918,65.6454574 C27.2371931,65.9794476 26.8482053,66.2564317 26.3666653,66.262468 C25.8824426,66.2731985 25.4907721,66.0029213 25.4854068,65.674296 C25.4854068,65.3369522 25.8656758,65.062651 26.3498985,65.0546029 C26.8314386,65.0452136 27.2257918,65.3134789 27.2257918,65.6454574 Z M30.5655231,65.5174391 C30.6232006,65.8433819 30.288537,66.1780426 29.8103503,66.267241 C29.3402116,66.3530858 28.9049476,66.1518868 28.8452581,65.8286271 C28.78691,65.4946365 29.1276097,65.1599755 29.5970777,65.0734603 C30.075935,64.9902979 30.5044923,65.1861314 30.5655231,65.5174391 Z"></path>
            </g>
        </g>
    </g>
</svg>