<svg width="100" height="100" viewBox="0 0 100 100" fill="none" xmlns="http://www.w3.org/2000/svg">
<path d="M50.5003 10C28.1355 10 10 28.1321 10 50.5C10 68.394 21.6046 83.5751 37.6966 88.9304C39.7207 89.3053 40.4638 88.0518 40.4638 86.9821C40.4638 86.0164 40.4262 82.826 40.4088 79.4418C29.1416 81.8918 26.764 74.6634 26.764 74.6634C24.9217 69.9821 22.2672 68.7374 22.2672 68.7374C18.5926 66.2237 22.5442 66.2754 22.5442 66.2754C26.6111 66.5611 28.7526 70.4489 28.7526 70.4489C32.3648 76.6405 38.2271 74.8505 40.5382 73.8156C40.9017 71.198 41.9513 69.4114 43.1096 68.4C34.1139 67.3759 24.6575 63.9032 24.6575 48.3848C24.6575 43.9631 26.2396 40.3502 28.8304 37.514C28.4099 36.4939 27.0236 32.3747 29.2227 26.7961C29.2227 26.7961 32.6237 25.7076 40.3632 30.9475C43.5938 30.0502 47.0585 29.6001 50.5003 29.5847C53.9422 29.6001 57.4096 30.0502 60.6462 30.9475C68.3763 25.7076 71.7726 26.7961 71.7726 26.7961C73.9771 32.3747 72.5901 36.4939 72.1696 37.514C74.7665 40.3502 76.3378 43.9631 76.3378 48.3848C76.3378 63.9401 66.8633 67.3652 57.8448 68.3678C59.2975 69.6247 60.5919 72.0894 60.5919 75.8679C60.5919 81.2868 60.5449 85.6482 60.5449 86.9821C60.5449 88.0599 61.274 89.3227 63.3269 88.925C79.4102 83.5637 91 68.388 91 50.5C91 28.1321 72.8671 10 50.5003 10ZM25.1687 67.6931C25.0795 67.8943 24.7629 67.9547 24.4746 67.8166C24.1808 67.6844 24.0158 67.4101 24.111 67.2083C24.1982 67.001 24.5155 66.9433 24.8085 67.0822C25.103 67.2143 25.2706 67.4913 25.1687 67.6931ZM27.1609 69.4707C26.9677 69.6498 26.5901 69.5666 26.3339 69.2836C26.069 69.0013 26.0194 68.6237 26.2152 68.4419C26.4144 68.2629 26.7806 68.3467 27.0462 68.629C27.3111 68.9147 27.3627 69.2896 27.1609 69.4707ZM28.5276 71.7451C28.2794 71.9174 27.8737 71.7558 27.6228 71.3956C27.3747 71.0355 27.3747 70.6036 27.6282 70.4306C27.8797 70.2575 28.2794 70.4131 28.5336 70.7706C28.7811 71.1368 28.7811 71.5687 28.5276 71.7451ZM30.8389 74.3791C30.617 74.6239 30.1441 74.5581 29.7981 74.2241C29.444 73.8975 29.3454 73.4341 29.568 73.1893C29.7927 72.9438 30.2682 73.0129 30.617 73.3442C30.9684 73.6702 31.0757 74.137 30.8389 74.3791ZM33.8262 75.2683C33.7283 75.5855 33.2729 75.7297 32.8141 75.5949C32.3561 75.4561 32.0563 75.0845 32.1488 74.7639C32.2441 74.4447 32.7015 74.2945 33.1636 74.4387C33.621 74.5768 33.9214 74.9457 33.8262 75.2683ZM37.2258 75.6455C37.2372 75.9794 36.8482 76.2564 36.3667 76.2625C35.8824 76.2732 35.4908 76.0029 35.4854 75.6743C35.4854 75.3369 35.8657 75.0627 36.3499 75.0546C36.8314 75.0452 37.2258 75.3135 37.2258 75.6455ZM40.5655 75.5174C40.6232 75.8434 40.2885 76.178 39.8104 76.2672C39.3402 76.3531 38.9049 76.1519 38.8453 75.8286C38.7869 75.4946 39.1276 75.16 39.5971 75.0735C40.0759 74.9903 40.5045 75.1861 40.5655 75.5174Z" fill="#F7FAFC"/>
</svg>
