<svg width="107" height="100" viewBox="0 0 107 100" fill="none" xmlns="http://www.w3.org/2000/svg">
<path d="M98.7404 36.0724C98.7341 36.0536 98.72 36.0425 98.7123 36.0244C97.1463 31.1904 94.8144 26.6956 91.8636 22.6716C91.813 22.5888 91.7631 22.513 91.6971 22.4393C82.9543 10.6625 68.8675 3 53.0003 3C40.684 3 29.4386 7.61778 20.9331 15.1911C20.8811 15.2377 20.8214 15.2718 20.7757 15.3267C11.0906 24.0228 5 36.5708 5 50.4998C5 51.5336 5.04567 52.5557 5.11171 53.5728C5.11311 53.5819 5.1089 53.5916 5.1103 53.6006C5.1103 53.6055 5.11311 53.6083 5.11522 53.6132C6.28641 71.4074 17.397 86.5543 33.0007 93.663C33.0843 93.7068 33.1644 93.7485 33.2543 93.777C39.2811 96.4814 45.9618 98 52.9993 98C68.0288 98 81.4621 91.1225 90.2717 80.388C90.2892 80.3706 90.3138 80.3644 90.3314 80.3463C90.3707 80.3025 90.3848 80.2483 90.4192 80.2017C97.0312 72.0611 101 61.7341 101 50.4998C101 45.4912 100.207 40.6634 98.7482 36.1255C98.7418 36.1082 98.7467 36.0891 98.7404 36.0724ZM88.6163 23.5649C86.7454 26.2751 84.9664 26.0971 81.9559 25.7766C79.5861 25.5242 76.6382 25.2099 73.305 26.6581C71.4354 27.4695 70.3262 28.5131 69.9101 29.8508C69.2603 31.9344 70.5256 33.936 71.7481 35.8716C72.9144 37.7168 74.016 39.4598 73.4701 40.9406C73.0816 41.9946 72.3355 42.0432 68.76 41.2472C65.531 40.5276 61.1131 39.5431 57.0507 42.0273C53.5428 44.1736 53.5125 47.8333 53.4893 50.7748C53.4753 52.5407 53.4612 54.21 52.6744 54.8038C52.139 55.2084 50.5484 55.7055 45.8854 54.4861C37.3147 52.2467 35.5898 46.2292 33.9198 40.4094C32.7318 36.2636 31.5023 31.9781 27.7253 29.6421C21.603 25.8564 22.8923 19.0145 23.3518 17.2347C31.2635 10.3225 37.4 22.6716 48.7564 22.6716C63.259 22.6716 80.4129 12.9673 88.6163 23.5649ZM11.5319 54.8038C15.1361 54.5299 21.085 54.3979 22.0511 60.3687C23.5117 69.3923 29.1331 70.7188 35.6438 72.2574C36.4855 72.4549 37.3595 72.6621 38.2609 72.8929C41.1991 73.6417 42.3162 77.4405 42.1117 80.6519C41.8314 85.0541 38.4821 85.4691 33.2543 86.3688C19.2477 79.8466 13.0733 70.7155 11.5319 54.8038Z" fill="#2C252C"/>
</svg>
