<svg width="200" height="100" viewBox="0 0 200 100" fill="none" xmlns="http://www.w3.org/2000/svg">
<path d="M53.9619 44.0768H33.0952V50.2684H47.8952C47.1619 58.9351 39.9402 62.6551 33.1202 62.6551C30.9597 62.6646 28.8189 62.2436 26.8228 61.4167C24.8268 60.5897 23.0155 59.3734 21.4946 57.8388C19.9738 56.3041 18.7739 54.4819 17.9651 52.4785C17.1562 50.475 16.7545 48.3305 16.7836 46.1701C16.7836 36.7968 24.0402 29.5801 33.1402 29.5801C40.1602 29.5801 44.2969 34.0551 44.2969 34.0551L48.6302 29.5651C48.6302 29.5651 43.0636 23.3701 32.9136 23.3701C19.9886 23.3701 9.99023 34.2784 9.99023 46.0601C9.99023 57.6051 19.3952 68.8635 33.2402 68.8635C45.4186 68.8635 54.3336 60.5201 54.3336 48.1834C54.3336 45.5801 53.9552 44.0768 53.9552 44.0768H53.9619Z" fill="#4885ED"/>
<path d="M71.0564 39.5915C62.4931 39.5915 56.3564 46.2865 56.3564 54.0915C56.3564 62.0148 62.3064 68.8332 71.1564 68.8332C79.1664 68.8332 85.7281 62.7115 85.7281 54.2615C85.7281 44.5948 78.0948 39.5898 71.0564 39.5898V39.5915ZM71.1398 45.3348C75.3498 45.3348 79.3398 48.7398 79.3398 54.2248C79.3398 59.5915 75.3664 63.0948 71.1198 63.0948C66.4531 63.0948 62.7864 59.3582 62.7864 54.1815C62.7864 49.1148 66.4198 45.3348 71.1531 45.3348H71.1398Z" fill="#DB3236"/>
<path d="M103.025 39.5915C94.4619 39.5915 88.3252 46.2865 88.3252 54.0915C88.3252 62.0148 94.2752 68.8332 103.125 68.8332C111.135 68.8332 117.697 62.7115 117.697 54.2615C117.697 44.5948 110.064 39.5898 103.025 39.5898V39.5915ZM103.109 45.3348C107.319 45.3348 111.309 48.7398 111.309 54.2248C111.309 59.5915 107.335 63.0948 103.089 63.0948C98.4219 63.0948 94.7552 59.3582 94.7552 54.1815C94.7552 49.1148 98.3885 45.3348 103.122 45.3348H103.109Z" fill="#F4C20D"/>
<path d="M134.38 39.6084C126.52 39.6084 120.344 46.4917 120.344 54.2184C120.344 63.0184 127.505 68.8551 134.244 68.8551C138.41 68.8551 140.627 67.2001 142.244 65.3017V68.1851C142.244 73.2301 139.18 76.2517 134.557 76.2517C130.09 76.2517 127.85 72.9301 127.057 71.0467L121.437 73.3801C123.43 77.5967 127.444 81.9917 134.604 81.9917C142.437 81.9917 148.374 77.0701 148.374 66.7467V40.4867H142.267V42.9634C140.384 40.9301 137.804 39.6084 134.384 39.6084H134.38ZM134.947 45.3417C138.8 45.3417 142.757 48.6317 142.757 54.2501C142.757 59.9617 138.807 63.1084 134.862 63.1084C130.672 63.1084 126.774 59.7084 126.774 54.3034C126.774 48.6901 130.824 45.3417 134.947 45.3417Z" fill="#4885ED"/>
<path d="M175.667 39.5732C168.253 39.5732 162.028 45.4732 162.028 54.1732C162.028 63.3832 168.967 68.8449 176.362 68.8449C182.548 68.8449 186.362 65.4616 188.612 62.4282L183.557 59.0649C182.245 61.0982 180.052 63.0899 176.393 63.0899C172.283 63.0899 170.393 60.8399 169.222 58.6566L188.827 50.5232L187.827 48.1399C185.933 43.4732 181.513 39.5732 175.667 39.5732ZM175.922 45.1966C178.593 45.1966 180.515 46.6166 181.332 48.3199L168.238 53.7916C167.672 49.5549 171.688 45.1966 175.905 45.1966H175.922Z" fill="#DB3236"/>
<path d="M152.667 67.9788H159.107V24.8838H152.667V67.9788Z" fill="#3CBA54"/>
</svg>
