<?xml version="1.0" encoding="UTF-8"?>
<svg width="100px" height="100px" viewBox="0 0 100 100" version="1.1" xmlns="http://www.w3.org/2000/svg" xmlns:xlink="http://www.w3.org/1999/xlink">
    <!-- Generator: Sketch 51.3 (57544) - http://www.bohemiancoding.com/sketch -->
    <title>linkedin</title>
    <desc>Created with Sketch.</desc>
    <defs></defs>
    <g id="linkedin" stroke="none" stroke-width="1" fill="none" fill-rule="evenodd">
        <g transform="translate(13.000000, 13.000000)" fill="#4B4656" fill-rule="nonzero" id="Shape">
            <path d="M58.5833333,0 L15.4166667,0 C6.90358333,0 0,6.90358333 0,15.4166667 L0,58.5833333 C0,67.0964167 6.90358333,74 15.4166667,74 L58.5833333,74 C67.0995,74 74,67.0964167 74,58.5833333 L74,15.4166667 C74,6.90358333 67.0995,0 58.5833333,0 Z M24.6666667,58.5833333 L15.4166667,58.5833333 L15.4166667,24.6666667 L24.6666667,24.6666667 L24.6666667,58.5833333 Z M20.0416667,20.757 C17.0631667,20.757 14.6458333,18.3211667 14.6458333,15.318 C14.6458333,12.3148333 17.0631667,9.879 20.0416667,9.879 C23.0201667,9.879 25.4375,12.3148333 25.4375,15.318 C25.4375,18.3211667 23.02325,20.757 20.0416667,20.757 Z M61.6666667,58.5833333 L52.4166667,58.5833333 L52.4166667,41.3043333 C52.4166667,30.9196667 40.0833333,31.7059167 40.0833333,41.3043333 L40.0833333,58.5833333 L30.8333333,58.5833333 L30.8333333,24.6666667 L40.0833333,24.6666667 L40.0833333,30.10875 C44.3876667,22.13525 61.6666667,21.5463333 61.6666667,37.7430833 L61.6666667,58.5833333 Z"></path>
        </g>
    </g>
</svg>