<svg width="100" height="100" viewBox="0 0 100 100" fill="none" xmlns="http://www.w3.org/2000/svg">
<path d="M71.5833 13H28.4167C19.9036 13 13 19.9036 13 28.4167V71.5833C13 80.0964 19.9036 87 28.4167 87H71.5833C80.0995 87 87 80.0964 87 71.5833V28.4167C87 19.9036 80.0995 13 71.5833 13ZM37.6667 71.5833H28.4167V37.6667H37.6667V71.5833ZM33.0417 33.757C30.0632 33.757 27.6458 31.3212 27.6458 28.318C27.6458 25.3148 30.0632 22.879 33.0417 22.879C36.0202 22.879 38.4375 25.3148 38.4375 28.318C38.4375 31.3212 36.0232 33.757 33.0417 33.757ZM74.6667 71.5833H65.4167V54.3043C65.4167 43.9197 53.0833 44.7059 53.0833 54.3043V71.5833H43.8333V37.6667H53.0833V43.1087C57.3877 35.1352 74.6667 34.5463 74.6667 50.7431V71.5833Z" fill="#2C252C"/>
</svg>
