<svg width="107" height="100" viewBox="0 0 107 100" fill="none" xmlns="http://www.w3.org/2000/svg">
<path d="M70.6251 28H34.3767C34.3767 28 9 49.7871 9 75.2129C9 89.7345 19.9128 97 27.1242 97H77.8758C85.1175 97 96 89.7338 96 75.2129C96 49.7871 70.6233 28 70.6233 28H70.6251Z" fill="#2C252C"/>
<path d="M70.4258 6.58604H60.5167C58.4697 4.30334 55.557 3 52.5006 3C49.4442 3 46.5315 4.30341 44.4845 6.58604H34.5754C33.39 6.59086 32.2841 7.18407 31.6189 8.17024C30.9536 9.15641 30.8154 10.4096 31.2493 11.519L34.5753 21H70.4247L73.7507 11.519C74.1846 10.4096 74.0463 9.15647 73.3811 8.17024C72.7159 7.18401 71.61 6.59087 70.4246 6.58604H70.4258Z" fill="#2C252C"/>
</svg>
