<?xml version="1.0" encoding="UTF-8"?>
<svg width="100px" height="100px" viewBox="0 0 100 100" version="1.1" xmlns="http://www.w3.org/2000/svg" xmlns:xlink="http://www.w3.org/1999/xlink">
    <!-- Generator: Sketch 51.3 (57544) - http://www.bohemiancoding.com/sketch -->
    <title>puzzle</title>
    <desc>Created with Sketch.</desc>
    <defs></defs>
    <g id="puzzle" stroke="none" stroke-width="1" fill="none" fill-rule="evenodd">
        <rect fill="#F8FAFC" x="0" y="0" width="100" height="100"></rect>
        <g id="noun_Puzzle_1547371_565163" transform="translate(47.500000, 50.000000) rotate(90.000000) translate(-47.500000, -50.000000) translate(22.000000, 6.000000)" fill="#565163" fill-rule="nonzero">
            <path d="M36.6780822,3.49315068 L36.6780822,16.9767123 C36.6780822,17.3260274 36.8876712,17.6054795 37.1671233,17.6753425 C37.2369863,17.6753425 37.2369863,17.6753425 37.3068493,17.6753425 C37.5164384,17.6753425 37.7260274,17.5356164 37.9356164,17.3958904 C39.2630137,15.5794521 41.8479452,14.2520548 44.0136986,14.2520548 C47.0876712,14.2520548 48.2054795,17.1863014 48.2054795,19.7013699 C48.2054795,22.2164384 47.0876712,25.1506849 44.0136986,25.1506849 C41.8479452,25.1506849 39.2630137,23.8232877 37.9356164,22.0068493 C37.7958904,21.7972603 37.5863014,21.7273973 37.3767123,21.7273973 C37.3068493,21.7273973 37.2369863,21.7273973 37.1671233,21.7273973 C36.8876712,21.8671233 36.6780822,22.1465753 36.6780822,22.4260274 L36.6780822,35.9794521 C36.6780822,36.3986301 36.3986301,36.6780822 35.9794521,36.6780822 L22.4958904,36.6780822 C22.1465753,36.6780822 21.8671233,36.8876712 21.7972603,37.1671233 C21.7273973,37.4465753 21.8671233,37.7260274 22.0767123,37.9356164 C23.8931507,39.2630137 25.2205479,41.8479452 25.2205479,44.0136986 C25.2205479,47.0876712 22.2863014,48.2054795 19.7712329,48.2054795 C17.2561644,48.2054795 14.3219178,47.0876712 14.3219178,44.0136986 C14.3219178,41.8479452 15.6493151,39.2630137 17.4657534,37.9356164 C17.7452055,37.7958904 17.8849315,37.4465753 17.7452055,37.1671233 C17.6054795,36.8876712 17.3260274,36.6780822 17.0465753,36.6780822 L3.49315068,36.6780822 C3.0739726,36.6780822 2.79452055,36.3986301 2.79452055,35.9794521 L2.86438356,3.49315068 C2.86438356,3.0739726 3.14383562,2.79452055 3.5630137,2.79452055 L35.9794521,2.79452055 C36.3986301,2.79452055 36.6780822,3.0739726 36.6780822,3.49315068 Z M24.2424658,0 C23.1246575,0 16.3479452,2.48203284e-15 15.3,2.48203284e-15 L3.5630137,2.48203284e-15 C1.60684932,2.48203284e-15 0.0698630137,1.5369863 0.0698630137,3.49315068 L0.0698630137,35.3506849 C0,35.560274 0,35.769863 0,35.9794521 C0,37.9356164 1.5369863,39.4726027 3.49315068,39.4726027 L12.7150685,39.4726027 C12.0164384,40.939726 11.5273973,42.4767123 11.5273973,44.0136986 C11.5273973,48.1356164 14.9506849,51 19.7712329,51 C24.5917808,51 28.0150685,48.1356164 28.0150685,44.0136986 C28.0150685,42.4767123 27.5958904,40.939726 26.8273973,39.4726027 L35.9794521,39.4726027 C37.9356164,39.4726027 39.4726027,37.9356164 39.4726027,35.9794521 L39.4726027,26.7575342 C40.939726,27.4561644 42.4767123,27.9452055 44.0136986,27.9452055 C48.1356164,27.9452055 51,24.5219178 51,19.7013699 C51,14.8808219 48.1356164,11.4575342 44.0136986,11.4575342 C42.4767123,11.4575342 40.939726,11.8767123 39.4726027,12.6452055 L39.4726027,3.49315068 C39.4726027,1.5369863 37.9356164,0 35.9794521,0 L24.2424658,0 Z" id="Shape"></path>
            <path d="M23.8589361,37.3978575 C23.3705365,38.3998801 24.8720576,39.3303297 25.5,40.1892063 C26.5465706,41.4775211 25.5,45.3424655 25.5,46.6307803 C25.5,49.2789829 23.8589361,50.2094325 19.8121965,50.2094325 C15.7654569,50.2094325 12.7652879,47.3465107 12.7652879,44.6983081 C12.7652879,43.3384202 13.8118584,40.5470715 14.858429,39.3303297 C15.5561428,38.4714532 15.3468286,38.3998801 14.858429,37.3978575 C10.0618318,37.1369915 5.87554942,36.874557 2.29958198,36.610554 C2.01899465,36.5898391 0.684814292,34.3648642 0.136669429,35.1790931 C-0.0455564763,35.4497764 -0.0455564763,36.8335219 0.136669429,39.3303297 L0.136669429,71.967638 C0.0668980565,72.1823572 0.0668980565,72.3970763 0.0668980565,72.6117954 C0.0668980565,74.6158407 1.60186825,76.1904477 3.55546668,76.1904477 L12.7652879,76.1904477 C12.0675741,77.6934816 11.5791745,79.2680886 11.5791745,80.8426955 C11.5791745,85.0655052 14.9979718,88 19.8121965,88 C24.6264212,88 28.0452184,85.0655052 28.0452184,80.8426955 C28.0452184,79.2680886 27.6265902,77.6934816 26.8591051,76.1904477 L35.9991549,76.1904477 C37.9527533,76.1904477 39.4877235,74.6158407 39.4877235,72.6117954 L39.4877235,63.1641535 C40.9529224,63.879884 42.4878926,64.3808953 44.0228627,64.3808953 C48.1393737,64.3808953 51,60.8738161 51,55.9352761 C51,50.996736 48.1393737,47.4896568 44.0228627,47.4896568 C42.4878926,47.4896568 40.9529224,47.9190951 39.4877235,48.7063986 L39.4877235,37.3978575 C39.4877235,36.5883494 36.3923009,37.4245199 32.9989859,37.3978575 C27.9916978,37.3585136 24.1084649,36.800589 23.8589361,37.3978575 Z" id="Shape"></path>
        </g>
    </g>
</svg>