<svg width="100" height="100" viewBox="0 0 100 100" fill="none" xmlns="http://www.w3.org/2000/svg">
<path d="M100 0H0V100H100V0Z" fill="#F8FAFC"/>
<path d="M88.0068 61.1781H74.5233C74.174 61.1781 73.8945 61.3877 73.8247 61.6671C73.8247 61.737 73.8247 61.737 73.8247 61.8069C73.8247 62.0164 73.9644 62.226 74.1041 62.4356C75.9205 63.763 77.2479 66.3479 77.2479 68.5137C77.2479 71.5877 74.3137 72.7055 71.7986 72.7055C69.2836 72.7055 66.3493 71.5877 66.3493 68.5137C66.3493 66.3479 67.6767 63.763 69.4932 62.4356C69.7027 62.2959 69.7726 62.0863 69.7726 61.8767C69.7726 61.8068 69.7726 61.737 69.7726 61.6671C69.6329 61.3877 69.3534 61.1781 69.074 61.1781H55.5205C55.1014 61.1781 54.8219 60.8986 54.8219 60.4795V46.9959C54.8219 46.6466 54.6123 46.3671 54.3329 46.2973C54.0534 46.2274 53.774 46.3671 53.5644 46.5767C52.237 48.3932 49.6521 49.7205 47.4863 49.7205C44.4123 49.7205 43.2945 46.7863 43.2945 44.2712C43.2945 41.7562 44.4123 38.8219 47.4863 38.8219C49.6521 38.8219 52.237 40.1493 53.5644 41.9658C53.7041 42.2452 54.0534 42.3849 54.3329 42.2452C54.6123 42.1055 54.8219 41.826 54.8219 41.5466V27.9932C54.8219 27.574 55.1014 27.2945 55.5205 27.2945L88.0068 27.3644C88.426 27.3644 88.7055 27.6438 88.7055 28.063V60.4795C88.7055 60.8986 88.426 61.1781 88.0068 61.1781ZM91.5 48.7425C91.5 47.6247 91.5 40.8479 91.5 39.8V28.063C91.5 26.1068 89.963 24.5699 88.0068 24.5699L56.1493 24.5699C55.9397 24.5 55.7301 24.5 55.5205 24.5C53.5644 24.5 52.0274 26.037 52.0274 27.9932V37.2151C50.5603 36.5164 49.0233 36.0274 47.4863 36.0274C43.3644 36.0274 40.5 39.4507 40.5 44.2712C40.5 49.0918 43.3644 52.5151 47.4863 52.5151C49.0233 52.5151 50.5603 52.0959 52.0274 51.3274V60.4795C52.0274 62.4356 53.5644 63.9726 55.5205 63.9726H64.7425C64.0438 65.4397 63.5548 66.9767 63.5548 68.5137C63.5548 72.6356 66.9781 75.5 71.7986 75.5C76.6192 75.5 80.0425 72.6356 80.0425 68.5137C80.0425 66.9767 79.6233 65.4397 78.8548 63.9726H88.0068C89.963 63.9726 91.5 62.4356 91.5 60.4795V48.7425Z" fill="#2C252C"/>
<path d="M54.1021 48.3589C53.1001 47.8705 52.1697 49.3721 51.3108 50C50.0225 51.0466 46.1575 50 44.8692 50C42.221 50 41.2906 48.3589 41.2906 44.3122C41.2906 40.2655 44.1535 37.2653 46.8017 37.2653C48.1616 37.2653 50.9529 38.3119 52.1697 39.3584C53.0285 40.0561 53.1001 39.8468 54.1021 39.3584C54.363 34.5618 54.6254 30.3755 54.8894 26.7996C54.9102 26.519 57.1351 25.1848 56.3209 24.6367C56.0502 24.4544 54.6665 24.4544 52.1697 24.6367L19.5324 24.6367C19.3176 24.5669 19.1029 24.5669 18.8882 24.5669C16.8842 24.5669 15.3096 26.1019 15.3096 28.0555V37.2653C13.8065 36.5676 12.2319 36.0792 10.6573 36.0792C6.43449 36.0792 3.5 39.498 3.5 44.3122C3.5 49.1264 6.43449 52.5452 10.6573 52.5452C12.2319 52.5452 13.8065 52.1266 15.3096 51.3591V60.4992C15.3096 62.4528 16.8842 63.9877 18.8882 63.9877H28.3358C27.6201 65.4529 27.1191 66.9879 27.1191 68.5229C27.1191 72.6394 30.6262 75.5 35.5647 75.5C40.5033 75.5 44.0103 72.6394 44.0103 68.5229C44.0103 66.9879 43.5809 65.4529 42.7936 63.9877H54.1021C54.9116 63.9877 54.0755 60.8923 54.1021 57.499C54.1415 52.4917 54.6994 48.6085 54.1021 48.3589Z" fill="#2C252C"/>
</svg>
