<svg width="100" height="100" viewBox="0 0 100 100" fill="none" xmlns="http://www.w3.org/2000/svg">
<path d="M100 0H0V100H100V0Z" fill="#F8FAFC"/>
<path d="M41.5084 76.3514C41.5084 77.2619 40.7747 78 39.8695 78H12.6635C11.7583 78 11.0245 77.2619 11.0245 76.3514C11.0245 75.4409 11.7583 74.7028 12.6635 74.7028H39.8695C40.7747 74.7028 41.5084 75.4409 41.5084 76.3514ZM12.6635 70.0409H31.0922C31.9973 70.0409 32.7311 69.3028 32.7311 68.3923C32.7311 67.4818 31.9973 66.7437 31.0922 66.7437H12.6635C11.7583 66.7437 11.0245 67.4818 11.0245 68.3923C11.0245 69.3028 11.7583 70.0409 12.6635 70.0409ZM12.6635 62.091H21.4408C22.3459 62.091 23.0797 61.3529 23.0797 60.4424C23.0797 59.5319 22.3459 58.7938 21.4408 58.7938H12.6635C11.7583 58.7938 11.0245 59.5319 11.0245 60.4424C11.0245 61.3529 11.7583 62.091 12.6635 62.091ZM91.0584 73.7045C87.2434 77.5421 74.8513 77.8351 71.2093 77.8351H70.3443C63.8432 77.8351 51.8791 76.9192 45.023 70.8835C43.0672 69.1302 41.3141 67.1608 39.7967 65.0127C38.3071 62.7703 36.3879 60.8491 34.1515 59.3616C32.9797 58.7988 31.7305 58.4159 30.4457 58.2259C28.6355 57.889 26.8611 57.38 25.1466 56.7055C19.1099 54.1319 11.7894 49.5433 11.0428 45.0463C10.3143 35.869 19.0461 23.3946 25.6109 18.4305C28.4426 16.2873 30.819 15.5546 32.6674 16.2598C35.9361 17.5146 36.71 20.2073 37.3929 22.5886C38.0121 24.7593 38.5948 26.8017 40.8255 28.5877C43.0563 30.3737 46.8355 29.8023 50.4132 28.5236C53.4631 27.4335 55.699 24.8594 56.7519 23.4868C56.9755 23.1952 57.3933 23.1402 57.6849 23.3638C57.7723 23.4309 57.8417 23.5186 57.8869 23.6192C57.903 23.655 57.9182 23.6887 57.9325 23.7204C66.6129 43.04 71.4027 53.2749 72.3019 54.425C74.261 55.2345 76.2608 55.9407 78.293 56.5407C84.5118 58.5282 88.7002 59.9661 90.2025 61.4499C91.6707 63.0508 92.6009 65.0759 92.8612 67.2383C93.314 69.5593 92.645 71.9588 91.0584 73.7045ZM89.3557 70.3798C87.8352 70.4714 85.3131 70.5904 82.2082 70.5904C73.6859 70.5904 60.8021 69.7203 52.2615 65.1409C45.3417 61.4041 41.9455 57.6764 37.2563 52.5199C31.1771 45.6748 24.5208 39.3714 17.3617 33.6801C15.3221 37.536 14.0565 41.4743 14.2751 44.5608C14.7485 46.9788 20.0477 50.9721 26.4031 53.6373C27.9301 54.2306 29.5092 54.6783 31.1195 54.9745C32.7978 55.2204 34.4212 55.7564 35.9179 56.559C38.4789 58.244 40.6824 60.4231 42.4007 62.9702C43.7838 64.9381 45.3844 66.7417 47.1718 68.3465C51.5878 72.239 60.0373 74.483 70.3534 74.483C76.1807 74.5746 86.26 73.7961 88.7275 71.3232C88.9998 71.0489 89.2135 70.7217 89.3557 70.3615V70.3798Z" fill="#2C252C"/>
</svg>
