<?xml version="1.0" encoding="UTF-8"?>
<svg width="100px" height="100px" viewBox="0 0 100 100" version="1.1" xmlns="http://www.w3.org/2000/svg" xmlns:xlink="http://www.w3.org/1999/xlink">
    <!-- Generator: Sketch 51.3 (57544) - http://www.bohemiancoding.com/sketch -->
    <title>quick</title>
    <desc>Created with Sketch.</desc>
    <defs></defs>
    <g id="quick" stroke="none" stroke-width="1" fill="none" fill-rule="evenodd">
        <rect fill="#F8FAFC" x="0" y="0" width="100" height="100"></rect>
        <g id="noun_running-shoe_1200375_565163" transform="translate(11.000000, 16.000000)" fill="#565163" fill-rule="nonzero">
            <path d="M30.5084227,60.351397 C30.5084227,61.2618953 29.774654,62 28.8695044,62 L1.66346028,62 C0.758310744,61.9999999 0.0245421028,61.2618952 0.0245421028,60.351397 C0.0245421028,59.4408987 0.758310744,58.702794 1.66346028,58.7027939 L28.8695044,58.7027939 C29.774654,58.7027939 30.5084227,59.4408987 30.5084227,60.351397 Z M1.66346028,54.0409109 L20.0921863,54.0409109 C20.9973359,54.0409109 21.7311046,53.3028062 21.7311046,52.3923079 C21.7311046,51.4818096 20.9973359,50.7437049 20.0921863,50.7437049 L1.66346028,50.7437049 C0.75831069,50.7437049 0.0245419646,51.4818096 0.0245419646,52.3923079 C0.0245419646,53.3028062 0.75831069,54.0409109 1.66346028,54.0409109 Z M1.66346028,46.0909808 L10.4407784,46.0909808 C11.345928,46.0909808 12.0796967,45.3528761 12.0796967,44.4423777 C12.0796967,43.5318794 11.345928,42.7937747 10.4407784,42.7937747 L1.66346028,42.7937747 C0.75831069,42.7937747 0.0245419646,43.5318794 0.0245419646,44.4423777 C0.0245419646,45.3528761 0.75831069,46.0909808 1.66346028,46.0909808 Z M80.0583865,57.7044732 C76.2433489,61.5420547 63.8513054,61.8351397 60.2092647,61.8351397 L59.34428,61.8351397 C52.8432373,61.8351397 40.8791336,60.9192491 34.022992,54.8835303 C32.0672426,53.1302053 30.3140783,51.1608342 28.7966636,49.0126717 C27.3070685,46.7702635 25.3879346,44.84913 23.1515005,43.3616269 C21.9796522,42.7987771 20.7304926,42.4159488 19.445724,42.2259226 C17.6354634,41.8890453 15.8611053,41.3799663 14.1465548,40.7055442 C8.10987234,38.1318917 0.789370514,33.5432799 0.0427521682,29.0462572 C-0.685655974,19.8690337 8.04613663,7.39460412 14.610915,2.43047723 C17.4426017,0.28729329 19.8190332,-0.445419168 21.6673689,0.259816572 C24.9361004,1.51458666 25.7100341,4.20730494 26.3929167,6.58862042 C27.0120636,8.75928108 27.5947901,10.8017171 29.8255401,12.5877037 C32.05629,14.3736903 35.8354892,13.8023368 39.4132122,12.5235913 C42.4631061,11.4335019 44.6990427,8.85939715 45.7518668,7.48683661 C45.7518668,7.48683661 45.7518668,7.48683661 45.7518668,7.48683661 L45.7518668,7.48683661 C45.9755499,7.19522226 46.3932811,7.14015312 46.6848954,7.36383624 C46.7723309,7.43090371 46.8417428,7.51863449 46.8868997,7.61915243 C46.9030439,7.65496743 46.9182137,7.6887326 46.9324544,7.72042752 C55.6128898,27.0400431 60.4026973,37.2748928 61.3018769,38.4249767 C63.2610109,39.2344906 65.2607787,39.9406853 67.2930339,40.5406839 C73.5118184,42.5281664 77.7001652,43.9661146 79.202507,45.4498574 C80.6706996,47.0508383 81.6008556,49.0759491 81.8611967,51.2382858 C82.3139971,53.5593178 81.6450119,55.9587847 80.0583865,57.7044732 Z M78.3557325,54.3797904 C76.8351805,54.4713795 74.3130673,54.5904453 71.2082276,54.5904453 C62.6858524,54.5904453 49.8021334,53.7203492 41.2615479,49.1408964 C34.3416705,45.4040628 30.9454676,41.6763882 26.2563402,36.5199243 C20.1771152,29.6747998 13.5207659,23.3713582 6.3616928,17.6800552 C4.32215,21.5359545 3.05654085,25.474284 3.2750633,28.5608352 C3.74852859,30.9787863 9.04769782,34.9720692 15.4030589,37.6373108 C16.9301148,38.2306118 18.5091984,38.6783117 20.1195016,38.974511 C21.797836,39.2203652 23.4212366,39.7564333 24.9178902,40.5590017 C27.4789333,42.2439614 29.6823759,44.4230684 31.4007227,46.9702357 C32.7838434,48.938055 34.3844359,50.7416807 36.171796,52.3465134 C40.5877704,56.2390483 49.0373048,58.4829802 59.3533851,58.4829802 C65.1806502,58.5745693 75.2599979,57.7960623 77.7274805,55.3231577 C77.9997595,55.0489293 78.2135387,54.7216908 78.3557325,54.3614726 L78.3557325,54.3797904 Z" id="Shape"></path>
        </g>
    </g>
</svg>