<?xml version="1.0" standalone="no"?>
<!DOCTYPE svg PUBLIC "-//W3C//DTD SVG 20010904//EN"
 "http://www.w3.org/TR/2001/REC-SVG-20010904/DTD/svg10.dtd">
<svg version="1.0" xmlns="http://www.w3.org/2000/svg"
 width="260.000000pt" height="260.000000pt" viewBox="0 0 260.000000 260.000000"
 preserveAspectRatio="xMidYMid meet">
<metadata>
Created by potrace 1.14, written by Peter Selinger 2001-2017
</metadata>
<g transform="translate(0.000000,260.000000) scale(0.100000,-0.100000)"
fill="#000000" stroke="none">
<path d="M1100 2494 c-36 -7 -78 -16 -95 -19 -52 -10 -173 -54 -243 -87 -171
-82 -371 -250 -473 -398 -101 -147 -176 -329 -204 -499 -14 -86 -14 -311 0
-396 14 -77 57 -211 96 -294 104 -222 286 -422 494 -543 86 -50 251 -117 330
-133 177 -36 406 -43 520 -15 28 6 60 14 71 16 96 18 261 89 369 157 137 86
277 223 364 355 67 103 150 288 166 372 6 32 16 80 21 100 11 44 13 303 3 355
-5 28 -12 66 -15 85 -9 60 -61 205 -103 287 -58 116 -133 217 -235 318 -78 76
-203 175 -222 175 -3 0 -18 9 -32 19 -48 34 -216 100 -322 127 -88 21 -132 26
-265 29 -104 1 -183 -2 -225 -11z"/>
</g>
</svg>
