<svg width="107" height="100" viewBox="0 0 107 100" fill="none" xmlns="http://www.w3.org/2000/svg">
<path d="M62.4623 72.7007L87.185 58.9425V75.7057C87.185 85.6693 68.7344 90.2027 51.6022 90.2027C34.4701 90.2027 16.0195 85.6693 16.0195 75.7057V58.9425L40.7421 72.7007C44.063 74.546 47.8058 75.4947 51.6013 75.4947C55.3968 75.4947 59.1397 74.546 62.4605 72.7007H62.4623ZM96.8228 33.0423L58.6465 11.8347C54.2392 9.38843 48.9734 9.38843 44.5661 11.8347L6.38974 33.0423C4.3026 34.2019 3 36.4108 3 38.8042C3 41.1976 4.3017 43.4065 6.38974 44.5661L44.5661 65.7685C46.7697 66.9916 49.1896 67.6085 51.6031 67.6085C54.0178 67.6085 56.4374 66.9969 58.6402 65.7685L95.0927 45.5202V65.1569C95.0927 67.3394 96.8639 69.1105 99.0464 69.1105C101.229 69.1105 103 67.3394 103 65.1569V38.7985C103 36.6161 97.6441 33.4955 96.8215 33.0366L96.8228 33.0423Z" fill="#2C252C"/>
</svg>
