<svg width="338" height="300" viewBox="0 0 338 300" fill="none" xmlns="http://www.w3.org/2000/svg">
<g clip-path="url(#clip0_442_848)">
<path d="M98.8141 250C85.6141 250 74.8141 247.3 66.4141 241.9C58.0141 236.5 51.1141 229.6 45.7141 221.2C39.7141 211 35.5141 200.5 33.1141 189.7C31.3141 178.3 30.4141 169 30.4141 161.8C30.4141 132.4 37.9141 105.7 52.9141 81.7C67.9141 57.7 91.3141 38.2 123.114 23.1999L131.214 39.3999C112.614 47.2 96.4141 59.5 82.6141 76.3C69.4141 93.1 62.8141 110.2 62.8141 127.6C62.8141 134.8 63.7141 141.1 65.5141 146.5C75.1141 138.7 86.2141 134.8 98.8141 134.8C114.414 134.8 127.914 139.9 139.314 150.1C150.714 160.3 156.414 174.4 156.414 192.4C156.414 209.2 150.714 223 139.314 233.8C127.914 244.6 114.414 250 98.8141 250ZM251.814 250C238.614 250 227.814 247.3 219.414 241.9C211.014 236.5 204.114 229.6 198.714 221.2C192.714 211 188.514 200.5 186.114 189.7C184.314 178.3 183.414 169 183.414 161.8C183.414 132.4 190.914 105.7 205.914 81.7C220.914 57.7 244.314 38.2 276.114 23.1999L284.214 39.3999C265.614 47.2 249.414 59.5 235.614 76.3C222.414 93.1 215.814 110.2 215.814 127.6C215.814 134.8 216.714 141.1 218.514 146.5C228.114 138.7 239.214 134.8 251.814 134.8C267.414 134.8 280.914 139.9 292.314 150.1C303.714 160.3 309.414 174.4 309.414 192.4C309.414 209.2 303.714 223 292.314 233.8C280.914 244.6 267.414 250 251.814 250Z" fill="#C2BEC4" fill-opacity="0.5"/>
</g>
<defs>
<clipPath id="clip0_442_848">
<rect width="338" height="300" fill="white"/>
</clipPath>
</defs>
</svg>
