<?xml version="1.0" encoding="UTF-8"?>
<svg width="100px" height="100px" viewBox="0 0 100 100" version="1.1" xmlns="http://www.w3.org/2000/svg" xmlns:xlink="http://www.w3.org/1999/xlink">
    <!-- Generator: Sketch 51.3 (57544) - http://www.bohemiancoding.com/sketch -->
    <title>user_research</title>
    <desc>Created with Sketch.</desc>
    <defs></defs>
    <g id="user_research" stroke="none" stroke-width="1" fill="none" fill-rule="evenodd">
        <rect fill="#F8FAFC" x="0" y="0" width="100" height="100"></rect>
        <g id="qualitative" transform="translate(14.000000, 18.000000)">
            <g id="noun_Heart_573811_ffffff" transform="translate(15.000000, 16.000000)"></g>
            <path d="M48.5242667,16.5683596 C46.8737778,14.8561199 44.7105778,14 42.5470222,14 C40.3838222,14 38.2206222,14.8561199 36.5701333,16.5683596 L35,18.1972374 L33.4298667,16.5683596 C31.7793778,14.8561199 29.6161778,14 27.4529778,14 C25.2894222,14 23.1262222,14.8561199 21.4757333,16.5683596 C18.1747556,19.9928391 18.1747556,25.5452614 21.4757333,28.9697409 L35,43 L48.5242667,28.9697409 C51.8252444,25.5452614 51.8252444,19.9928391 48.5242667,16.5683596" id="Shape" fill="#565163" fill-rule="nonzero"></path>
            <g id="noun_message_2019766_565163" fill="#565163" fill-rule="nonzero">
                <path d="M27.8905263,66 C27.0568421,66 26.3747368,65.3093023 26.3747368,64.4651163 L26.3747368,52.4930233 L10.7621053,52.4930233 C5.15368421,52.4162791 0.682105263,47.7348837 0.757894737,41.9790698 L0.757894737,10.5139535 C0.757894737,4.60465116 5.15368421,0 10.7621053,0 L61.92,0 C67.5284211,0.076744186 72.0757895,4.83488372 71.9242105,10.5139535 L71.9242105,41.9790698 C71.9242105,47.6581395 67.3010526,52.4930233 61.92,52.4930233 L45.3978947,52.4930233 L28.8,65.6930233 C28.4968421,65.9232558 28.1936842,66 27.8905263,66 Z M12.1411093,3.9591099 C8.3762153,4.03242375 5.40774119,7.11160527 5.40774119,10.9239253 C5.40774119,10.9972391 5.40774119,10.9972391 5.40774119,11.070553 L5.40774119,41.1292298 C5.33533938,44.9415498 8.30381349,48.167359 12.0687075,48.2406728 L28.3591142,48.2406728 C29.1555341,48.2406728 29.8071504,48.9004974 29.8071504,49.7069497 L29.8071504,59.6043189 L43.853101,48.5339282 C44.1427083,48.3139867 44.4323155,48.2406728 44.7219227,48.2406728 L61.0123294,48.2406728 C64.6324198,48.2406728 67.6732957,45.0148636 67.6732957,41.1292298 L67.6732957,11.070553 C67.7456976,7.25823296 64.7772234,4.03242375 61.0123294,3.9591099 L12.1411093,3.9591099 Z" id="Shape"></path>
            </g>
        </g>
    </g>
</svg>