<svg width="100" height="100" viewBox="0 0 100 100" fill="none" xmlns="http://www.w3.org/2000/svg">
<path d="M100 0H0V100H100V0Z" fill="#F8FAFC"/>
<path d="M62.5243 34.5684C60.8738 32.8561 58.7106 32 56.547 32C54.3838 32 52.2206 32.8561 50.5701 34.5684L49 36.1972L47.4299 34.5684C45.7794 32.8561 43.6162 32 41.453 32C39.2894 32 37.1262 32.8561 35.4757 34.5684C32.1748 37.9928 32.1748 43.5453 35.4757 46.9697L49 61L62.5243 46.9697C65.8252 43.5453 65.8252 37.9928 62.5243 34.5684Z" fill="#2C252C"/>
<path d="M41.8905 84C41.0568 84 40.3747 83.3093 40.3747 82.4651V70.493H24.7621C19.1537 70.4163 14.6821 65.7349 14.7579 59.9791V28.514C14.7579 22.6047 19.1537 18 24.7621 18H75.92C81.5284 18.0767 86.0758 22.8349 85.9242 28.514V59.9791C85.9242 65.6581 81.301 70.493 75.92 70.493H59.3979L42.8 83.693C42.4968 83.9233 42.1937 84 41.8905 84ZM26.1411 21.9591C22.3762 22.0324 19.4077 25.1116 19.4077 28.9239C19.4077 28.9972 19.4077 28.9972 19.4077 29.0706V59.1292C19.3353 62.9416 22.3038 66.1674 26.0687 66.2407H42.3591C43.1555 66.2407 43.8071 66.9005 43.8071 67.707V77.6043L57.8531 66.5339C58.1427 66.314 58.4323 66.2407 58.7219 66.2407H75.0123C78.6324 66.2407 81.6733 63.0149 81.6733 59.1292V29.0706C81.7457 25.2582 78.7772 22.0324 75.0123 21.9591H26.1411Z" fill="#2C252C"/>
</svg>
